<svg width="30" height="29" viewBox="0 0 30 29" fill="none" xmlns="http://www.w3.org/2000/svg">
<path d="M11.1818 27.7271C11.8848 27.7271 12.4546 27.1573 12.4546 26.4544C12.4546 25.7515 11.8848 25.1816 11.1818 25.1816C10.4789 25.1816 9.90912 25.7515 9.90912 26.4544C9.90912 27.1573 10.4789 27.7271 11.1818 27.7271Z" stroke="white" stroke-width="2" stroke-linecap="round" stroke-linejoin="round"/>
<path d="M25.1818 27.7271C25.8848 27.7271 26.4546 27.1573 26.4546 26.4544C26.4546 25.7515 25.8848 25.1816 25.1818 25.1816C24.4789 25.1816 23.9091 25.7515 23.9091 26.4544C23.9091 27.1573 24.4789 27.7271 25.1818 27.7271Z" stroke="white" stroke-width="2" stroke-linecap="round" stroke-linejoin="round"/>
<path d="M1 1H6.09091L9.50182 18.0418C9.6182 18.6278 9.93697 19.1541 10.4023 19.5287C10.8677 19.9034 11.45 20.1024 12.0473 20.0909H24.4182C25.0155 20.1024 25.5978 19.9034 26.0631 19.5287C26.5285 19.1541 26.8473 18.6278 26.9636 18.0418L29 7.36364H7.36364" stroke="white" stroke-width="2" stroke-linecap="round" stroke-linejoin="round"/>
</svg>
