<svg width="25" height="24" viewBox="0 0 25 24" fill="none" xmlns="http://www.w3.org/2000/svg">
<path d="M9.36381 23C9.9412 23 10.4093 22.531 10.4093 21.9524C10.4093 21.3738 9.9412 20.9048 9.36381 20.9048C8.78643 20.9048 8.31836 21.3738 8.31836 21.9524C8.31836 22.531 8.78643 23 9.36381 23Z" stroke="#A39588" stroke-width="2" stroke-linecap="round" stroke-linejoin="round"/>
<path d="M20.8638 23C21.4412 23 21.9093 22.531 21.9093 21.9524C21.9093 21.3738 21.4412 20.9048 20.8638 20.9048C20.2864 20.9048 19.8184 21.3738 19.8184 21.9524C19.8184 22.531 20.2864 23 20.8638 23Z" stroke="#A39588" stroke-width="2" stroke-linecap="round" stroke-linejoin="round"/>
<path d="M1 1H5.18182L7.98364 15.0277C8.07924 15.51 8.34108 15.9433 8.72334 16.2517C9.1056 16.56 9.58391 16.7238 10.0745 16.7144H20.2364C20.727 16.7238 21.2053 16.56 21.5876 16.2517C21.9698 15.9433 22.2317 15.51 22.3273 15.0277L24 6.23813H6.22727" stroke="#A39588" stroke-width="2" stroke-linecap="round" stroke-linejoin="round"/>
</svg>
