<?xml version="1.0" standalone="no"?>
<!DOCTYPE svg PUBLIC "-//W3C//DTD SVG 1.1//EN" "http://www.w3.org/Graphics/SVG/1.1/DTD/svg11.dtd" >
<svg xmlns="http://www.w3.org/2000/svg" xmlns:xlink="http://www.w3.org/1999/xlink" version="1.1">
<metadata>
Created by FontForge 20180930 at Mon Oct  8 19:29:01 2018
 By root
Copyright (c) 2014 by Arwan Sutanto. All rights reserved.
</metadata>
<defs>
<font id="Belepotan" horiz-adv-x="644" >
  <font-face 
    font-family="Belepotan"
    font-weight="400"
    font-stretch="normal"
    units-per-em="1000"
    panose-1="0 0 0 0 0 0 0 0 0 0"
    ascent="750"
    descent="-250"
    x-height="566"
    cap-height="713"
    bbox="-77 -197.92 1031.29 987"
    underline-thickness="50"
    underline-position="-100"
    stemh="103"
    stemv="111"
    unicode-range="U+0020-20AC"
  />
    <missing-glyph />
    <glyph glyph-name="space" unicode=" " horiz-adv-x="267" 
 />
    <glyph glyph-name="E" unicode="E" horiz-adv-x="616" 
d="M116 588c-33 20 -63 82 -78 114c-11 17 -1 17 13 13c46 -13 128 -12 176 -14c72 0 159 9 232 13c44 9 78 -6 112 -48c-2 -22 -149 -67 -180 -68c-60 0 -88 2 -146 -6c-7 -52 -13 -106 -18 -159c16 -1 33 -3 49 -5c43 -2 106 4 150 6c9 5 18 3 28 -2c12 -6 32 -37 38 -49
c1 -21 -72 -63 -98 -63c-107 6 -102 -6 -177 -4c-3 -56 -2 -124 3 -170c5 -10 5 -16 0 -24c-2 -2 -10 -6 -19 -9c39 -2 77 -3 108 -4c59 -1 147 7 204 17c7 6 14 6 24 1c9 -4 30 -35 37 -44c12 -35 -63 -74 -95 -76c-41 1 -84 -2 -125 -4c-55 -6 -151 -15 -207 -5
c-47 17 -78 77 -96 119c-12 20 7 15 20 11c23 -5 51 -9 80 -11c-28 27 -48 96 -48 123c1 16 10 131 7 138c-15 22 -28 46 -37 63c-15 23 20 13 36 9c0 50 1 103 7 138z" />
    <glyph glyph-name="F" unicode="F" horiz-adv-x="619" 
d="M217 586c-33 -4 -68 -6 -90 -2c-36 17 -69 83 -86 117c-11 16 -1 16 13 12c46 -12 128 -12 176 -14c72 0 159 10 233 14c44 9 78 -6 114 -49c-2 -22 -148 -67 -179 -68c-40 2 -81 0 -119 -2c2 -15 -3 -139 -3 -164c12 -1 24 -3 36 -4c44 -2 107 3 151 6c9 5 18 3 29 -2
c11 -6 32 -37 38 -49c2 -21 -70 -63 -96 -64c-106 6 -79 -2 -162 -4l-6 -281c4 -15 1 -25 -6 -35c-8 -10 -40 -12 -55 -10c-28 16 -51 133 -50 162c6 44 7 94 7 140c-2 22 -4 49 -6 76c-19 25 -36 53 -47 74c-17 24 23 11 43 7c-3 79 -8 106 65 140z" />
    <glyph glyph-name="G" unicode="G" horiz-adv-x="647" 
d="M553 562c27 -36 -80 29 -93 35c-112 49 -207 -16 -257 -93c-51 -78 -78 -206 -36 -310c33 -80 107 -130 181 -102c69 28 94 82 115 149c0 2 1 4 2 6h-4c-33 -5 -82 -10 -116 0c-35 19 -68 86 -85 121c-13 19 11 14 22 11c46 -14 100 -19 147 -25c32 -3 90 2 124 4
c7 6 14 3 23 -2c10 -6 28 -38 33 -49c6 -13 -52 -60 -76 -63c3 -11 5 -20 5 -23c1 -28 -1 -57 -7 -82c-27 -68 -60 -118 -128 -150c-89 -38 -205 3 -277 88c-87 102 -100 240 -84 349c18 129 107 270 240 299c39 8 71 6 112 -7c74 -33 126 -84 159 -156z" />
    <glyph glyph-name="H" unicode="H" horiz-adv-x="653" 
d="M238 700c23 12 11 -37 10 -41c-16 -77 -25 -166 -33 -250c91 -9 121 -12 215 -4c-1 83 -2 209 15 278c20 45 79 51 129 39c20 -3 15 -9 9 -21c-23 -57 -35 -200 -42 -282c34 -4 68 -45 69 -47c1 -14 -36 -37 -74 -54c-1 -84 1 -178 9 -253c6 -16 6 -28 1 -43
c-3 -13 -31 -27 -44 -32c-42 8 -77 169 -77 207c2 32 3 66 3 99c-26 0 -52 -1 -78 -1c-41 -4 -96 -8 -145 -5c-3 -78 -1 -168 5 -241c6 -17 6 -29 1 -44c-4 -13 -32 -30 -45 -35c-37 10 -74 166 -74 204c4 53 5 108 7 161c-26 26 -49 57 -66 83c-22 22 33 11 38 10
c9 -1 18 -3 27 -4c1 68 3 142 14 195c18 50 74 70 126 81z" />
    <glyph glyph-name="I" unicode="I" horiz-adv-x="273" 
d="M189 713c19 7 16 -11 13 -21c-17 -68 -16 -233 -19 -313c-2 -109 3 -221 2 -330c4 -16 3 -27 -4 -39c-8 -12 -38 -14 -53 -12c-38 18 -58 149 -57 181c4 61 4 127 3 189c-4 80 -15 221 -5 293c17 51 73 44 120 52z" />
    <glyph glyph-name="J" unicode="J" horiz-adv-x="518" 
d="M452 708c22 18 17 -49 17 -52c-2 -99 2 -197 -2 -297c-4 -70 -9 -141 -26 -207v0c-7 -30 -14 -54 -26 -82c-12 -24 -25 -42 -49 -56s-44 -21 -73 -25c-26 -3 -47 -2 -74 4c-50 15 -86 37 -123 77c-14 16 -25 30 -36 49c-17 24 -25 44 -28 71c-1 8 -1 16 0 25
c1 13 5 23 13 33c13 15 31 26 54 24c3 -1 1 -36 3 -44c2 -14 6 -25 12 -38c14 -26 29 -45 53 -63c23 -17 35 -22 60 -28c1 0 4 -1 5 -1c10 -3 18 -4 27 -3c16 1 28 6 42 13c6 3 13 15 16 21c5 10 9 21 12 32c2 10 4 20 6 31c9 62 11 126 12 191c0 56 -2 113 0 168
c8 73 38 130 105 157z" />
    <glyph glyph-name="K" unicode="K" horiz-adv-x="608" 
d="M193 711c23 1 10 -23 6 -32c-19 -54 -28 -142 -34 -222c25 21 49 47 69 71c27 35 85 136 106 157c31 26 102 26 146 29c28 11 3 -39 1 -43c-47 -83 -94 -140 -157 -210c36 -90 56 -144 103 -235c30 -52 87 -134 129 -180c10 -5 14 -12 17 -22c3 -9 -9 -40 -13 -49
c-25 -20 -116 46 -139 78c-23 38 -48 77 -72 114c-26 36 -110 162 -112 197c-17 -17 -66 -74 -87 -79c-1 -80 2 -165 4 -243c5 -13 4 -23 -2 -34c-7 -11 -38 -14 -51 -13c-40 14 -62 136 -62 167c4 58 4 120 4 178c-3 91 -7 225 10 309c20 51 76 70 134 62z" />
    <glyph glyph-name="L" unicode="L" horiz-adv-x="558" 
d="M215 715c21 0 13 -15 9 -26c-24 -68 -31 -210 -38 -289c-5 -84 -3 -194 3 -281c3 -5 4 -10 4 -15c11 0 21 -1 29 -1c59 -2 138 7 198 11c13 6 25 4 40 -1c15 -4 42 -33 51 -47c0 -22 -114 -66 -143 -67c-35 2 -72 1 -106 -1c-38 -5 -105 -14 -144 -4
c-35 19 -59 85 -70 119c-7 16 -1 17 12 11c11 -5 27 -9 44 -11c-19 40 -31 99 -31 121c4 53 4 110 5 164c-3 77 -6 202 9 271c19 45 77 53 128 46z" />
    <glyph glyph-name="M" unicode="M" horiz-adv-x="683" 
d="M212 705c7 2 11 1 13 -2c11 4 12 -3 11 -15c-1 -51 33 -172 48 -229c12 -38 29 -84 47 -130c20 42 38 89 55 133c19 60 52 161 85 209c16 15 37 20 61 19c24 16 55 23 86 25c22 6 12 -24 10 -32c-19 -91 -14 -203 -16 -299c1 -99 10 -207 15 -308c5 -18 4 -31 -2 -46
c-5 -15 -34 -28 -50 -31c-29 13 -65 170 -66 204c2 55 -1 114 -3 170c-2 19 -4 41 -6 64l-4 -7c-19 -43 -75 -270 -104 -302c-15 -22 -51 2 -75 31c-86 104 -82 154 -128 267c-2 -18 -4 -35 -6 -52c-11 -101 -15 -217 -19 -321c4 -19 2 -32 -5 -48c-6 -14 -36 -27 -52 -30
c-32 16 -52 185 -50 220c8 58 12 120 16 179c2 76 2 201 16 270c19 45 76 53 123 61z" />
    <glyph glyph-name="N" unicode="N" horiz-adv-x="630" 
d="M64 632c20 57 123 133 154 42c33 -96 86 -201 130 -295c27 -52 58 -108 90 -163c0 42 0 85 -1 127c-4 85 -9 204 2 284c16 54 69 81 121 97c22 16 12 -42 12 -45c-16 -104 -21 -223 -27 -330c-3 -83 2 -197 12 -282c7 -14 6 -25 2 -37c-36 -113 -198 115 -213 143
c-23 49 -51 100 -78 148c-29 48 -66 108 -95 165c-4 -45 -7 -90 -11 -132c-4 -91 -1 -204 5 -298c5 -17 4 -29 -1 -43c-4 -14 -32 -28 -46 -32c-35 11 -70 163 -70 199c3 55 4 114 4 170c-3 84 -5 204 10 282z" />
    <glyph glyph-name="P" unicode="P" horiz-adv-x="639" 
d="M168 606v0c-48 11 -96 28 -142 50c-63 11 175 81 348 55c169 -24 241 -138 223 -284c-11 -87 -81 -141 -158 -169c-48 -17 -116 -36 -172 -24c-7 2 -15 5 -23 9c-2 -68 -2 -152 3 -214c5 -10 5 -17 0 -24c-4 -6 -37 -13 -46 -15c-41 0 -69 106 -68 139c4 49 5 102 6 152
c-3 82 -8 196 -1 274c5 20 16 37 30 51zM248 311c85 25 232 71 243 149c4 29 6 76 -22 103c-44 42 -159 32 -207 31c-3 -95 -7 -188 -14 -283z" />
    <glyph glyph-name="Q" unicode="Q" horiz-adv-x="713" 
d="M351 644c25 -15 -28 -17 -48 -24c-7 -3 -13 -7 -19 -11c-103 -69 -139 -316 -76 -447c21 -46 52 -68 98 -65c47 4 86 21 120 48c-31 35 -70 80 -85 114c-7 39 36 82 60 105c10 14 16 1 20 -11c13 -37 44 -86 71 -126c41 77 55 185 21 283c-8 22 -17 41 -30 61
c-15 20 -59 62 -78 73c-44 34 -58 42 -107 66c7 21 105 7 128 0c45 -16 76 -37 111 -72c66 -68 100 -164 107 -249c7 -90 -26 -194 -74 -260c27 -28 57 -56 80 -76c12 -5 17 -12 23 -23c5 -10 0 -44 -3 -55c-19 -18 -121 32 -148 60c-6 7 -12 15 -19 23
c-45 -36 -102 -60 -164 -69c-96 -13 -185 43 -235 138c-64 124 -65 298 -23 411c17 42 37 71 71 99c32 25 64 41 110 41c32 -1 63 -8 89 -34z" />
    <glyph glyph-name="R" unicode="R" horiz-adv-x="636" 
d="M238 600v0c-36 0 -94 -3 -138 9c-32 9 -68 42 -75 56c18 25 64 31 71 33c88 24 151 24 247 22c246 -8 382 -344 99 -436c20 -34 42 -68 54 -88c30 -46 80 -106 116 -150c9 -6 13 -13 14 -23c1 -11 -18 -33 -25 -40c-24 -11 -97 36 -116 62c-17 29 -41 61 -62 88
c-27 33 -73 86 -94 127c-25 -5 -65 -4 -92 5c-4 -63 -3 -149 5 -208c6 -12 5 -21 2 -32c-4 -9 -33 -24 -43 -29c-36 5 -77 123 -77 160c4 44 5 91 7 135c-1 69 -1 170 11 233c15 38 56 60 96 76zM246 346c65 18 214 45 242 115c26 62 -35 139 -119 139c-31 0 -62 -1 -93 -1
c2 -13 -1 -32 -1 -34c-12 -71 -20 -146 -29 -219z" />
    <glyph glyph-name="S" unicode="S" horiz-adv-x="574" 
d="M468 567c1 -20 -27 5 -35 9c-52 31 -124 39 -174 29c-84 -17 -28 -66 23 -107c77 -64 152 -131 206 -216c38 -61 68 -128 53 -194c-36 -151 -283 -142 -419 -41c-26 18 -59 50 -75 77c-18 32 -23 59 -22 93c3 41 42 78 78 92c3 -2 -5 -79 -2 -95c4 -22 11 -37 26 -55
c49 -58 135 -70 200 -75c55 -5 125 9 108 80c-22 87 -151 193 -217 245c-37 29 -67 55 -94 94c-66 96 -32 187 67 216c82 23 208 -20 260 -98c10 -17 20 -36 17 -54z" />
    <glyph glyph-name="T" unicode="T" horiz-adv-x="650" 
d="M25 701c-20 21 23 13 31 11c77 -14 168 -13 244 -14c69 2 154 14 223 22c12 7 24 6 40 1c15 -4 44 -33 54 -46c3 -26 -107 -74 -138 -76c-26 0 -53 -1 -79 -3c0 -6 -1 -14 -2 -18c-15 -81 -13 -216 -16 -306c-1 -82 4 -181 9 -266c5 -8 5 -15 -1 -20c-13 -5 -38 4 -51 4
c-52 17 -67 78 -68 119c4 51 2 108 1 160c-6 79 -17 208 -8 279c6 18 17 29 31 37c-48 -6 -102 -10 -144 -4c-53 16 -97 75 -126 120z" />
    <glyph glyph-name="U" unicode="U" horiz-adv-x="603" 
d="M206 710c27 10 3 -48 2 -50c-29 -88 -98 -429 2 -521c38 -34 93 -49 138 -50c81 -2 59 27 62 119c5 51 6 107 7 159c-4 79 -10 190 0 263c16 51 69 75 120 88c22 13 12 -38 11 -42c-15 -95 -17 -208 -24 -306c-4 -95 -2 -196 -4 -293c4 -18 1 -32 -6 -46
c-6 -15 -36 -27 -52 -30c-4 2 -8 7 -11 15c-53 -31 -133 -39 -200 -14c-34 13 -79 43 -107 69c-94 90 -105 268 -102 368c2 56 6 114 19 166c23 64 73 100 145 105z" />
    <glyph glyph-name="V" unicode="V" horiz-adv-x="585" 
d="M115 711c16 8 16 0 16 -14c1 -63 48 -219 67 -288c22 -71 51 -152 81 -228c2 12 4 22 6 29c21 57 39 120 56 179c19 82 48 219 79 292c33 49 85 31 136 37c21 7 11 -17 6 -26c-39 -74 -81 -224 -110 -310c-31 -100 -57 -206 -87 -308c1 -13 -3 -22 -13 -30
c-28 -23 -33 -60 -66 -61c-36 -4 -105 149 -118 186c-18 62 -40 125 -61 186c-27 69 -77 198 -87 266c2 50 54 74 95 90z" />
    <glyph glyph-name="W" unicode="W" horiz-adv-x="815" 
d="M148 703c18 4 15 -4 13 -19c-7 -73 20 -237 32 -318c6 -39 14 -82 23 -126c10 37 19 76 27 112c13 85 31 200 59 277c28 52 88 74 146 81c26 11 2 -42 0 -45c-24 -58 22 -266 36 -336c7 -33 18 -70 30 -107c14 43 25 89 36 134c15 82 35 185 64 261c31 56 93 88 154 106
c27 19 -1 -53 -4 -61c-40 -102 -71 -212 -105 -317c-23 -81 -41 -176 -59 -259c2 -30 -36 -95 -64 -100c-51 -9 -106 143 -115 175c-9 42 -22 87 -34 129c-9 26 -19 54 -27 83c-3 -9 -5 -17 -7 -26c-25 -96 -42 -195 -67 -293c0 -17 -5 -30 -15 -43s-43 -20 -60 -20
c-19 14 -79 128 -85 157c-8 58 -21 119 -32 178c-20 80 -52 213 -54 291c8 52 59 79 108 86z" />
    <glyph glyph-name="X" unicode="X" horiz-adv-x="640" 
d="M89 718c8 25 30 -24 32 -29c39 -74 101 -160 159 -237c51 79 109 166 162 226c47 41 103 40 164 24c27 -1 -5 -32 -10 -36c-80 -86 -155 -226 -229 -327c62 -77 128 -152 189 -231c14 -11 21 -24 27 -41c4 -17 -9 -45 -19 -58c-50 -15 -196 144 -269 229
c-53 -76 -102 -151 -166 -222c-6 -18 -29 -29 -44 -39c-13 -10 -45 -6 -61 -1c-28 29 51 185 72 214c38 49 76 101 112 153c-51 66 -102 144 -140 205c-26 59 -13 121 21 170z" />
    <glyph glyph-name="Y" unicode="Y" horiz-adv-x="592" 
d="M92 708c11 17 21 -12 23 -21c21 -60 66 -125 103 -179c26 -36 67 -81 103 -119c16 91 41 208 77 281c32 44 92 55 150 27c22 -7 4 -21 -3 -29c-51 -67 -95 -226 -119 -313c-24 -95 -44 -216 -55 -316c2 -15 0 -25 -7 -36s-37 -15 -51 -15c-39 15 -42 159 -36 192
c9 39 18 78 26 118c-33 17 -70 43 -82 57c-21 28 -46 58 -69 86c-40 42 -90 100 -114 150c-12 47 24 91 54 117z" />
    <glyph glyph-name="Z" unicode="Z" horiz-adv-x="619" 
d="M65 694c-12 20 10 15 22 12c59 -13 143 -11 202 -11c54 2 131 15 184 26c8 7 17 6 28 2c12 -4 35 -33 42 -44c2 -9 -4 -20 -15 -30c2 -1 3 -2 5 -3c19 -10 9 -14 -2 -23c-54 -47 -137 -183 -179 -248c-50 -81 -100 -180 -143 -269c36 0 73 0 108 -1c56 2 133 16 187 27
c10 7 20 6 33 3c14 -4 41 -32 49 -43c4 -26 -87 -81 -119 -85c-35 -1 -72 -5 -107 -8c-55 -10 -134 -21 -191 -16c-52 14 -103 71 -136 114c-25 21 36 15 40 15c11 -1 22 -2 33 -2c7 54 29 121 40 141c33 52 63 107 93 161c24 49 59 119 94 176v0c-48 -9 -124 -21 -174 -14
c-44 17 -76 79 -94 120z" />
    <glyph glyph-name="zero" unicode="0" horiz-adv-x="695" 
d="M370 612v0c33 -10 -39 -29 -52 -36c-112 -57 -182 -246 -141 -377c25 36 49 79 71 118c35 75 80 169 125 235c22 23 50 36 82 44c-61 47 -117 38 -181 47c-30 4 -41 19 -58 51c12 24 136 24 162 21c56 -9 98 -26 147 -62c84 -66 127 -175 127 -268
c0 -107 -28 -228 -90 -305c-63 -79 -159 -112 -273 -93c-42 7 -74 19 -109 41c-8 2 -15 4 -20 5c-4 4 -7 9 -9 16c-35 30 -57 60 -77 101c-51 110 -41 245 2 340c34 75 109 137 199 142c31 1 64 -2 95 -20zM514 521c-54 -81 -104 -166 -157 -248c-32 -52 -63 -112 -94 -169
c8 -3 15 -5 24 -6c80 -16 140 1 185 57c45 61 59 128 65 208c4 51 0 106 -23 158z" />
    <glyph glyph-name="one" unicode="1" horiz-adv-x="357" 
d="M37 613c-29 16 42 23 47 24c70 16 96 65 140 84c31 13 71 -9 83 -46c12 -40 -2 -175 -5 -214c-4 -35 -3 -72 -6 -108c-4 -99 -10 -198 -15 -297c3 -18 2 -33 -6 -48c-7 -14 -36 -17 -52 -15c-44 17 -48 200 -46 234c6 69 15 157 16 227v104l1 -1c-53 -4 -112 15 -157 56z
" />
    <glyph glyph-name="two" unicode="2" horiz-adv-x="611" 
d="M138 537c-24 17 -72 33 -74 53c86 146 326 176 419 57c55 -72 31 -156 4 -218c-52 -115 -135 -152 -238 -210c-77 -44 -87 -78 -78 -102c53 -4 108 -10 118 -10c62 1 134 10 196 14c11 5 22 3 35 -2c14 -5 37 -35 44 -48c0 -23 -96 -65 -124 -66c-35 2 -72 0 -106 -3
c-51 -7 -128 -18 -181 -12c-48 14 -59 76 -88 117c-6 7 1 10 17 12c-2 9 -4 17 -4 19c-2 29 2 50 12 75c21 47 52 73 93 102c18 14 39 28 59 37c64 31 115 69 144 134c74 167 -87 109 -180 77c-26 -9 -48 -17 -68 -26z" />
    <glyph glyph-name="three" unicode="3" horiz-adv-x="551" 
d="M56 609c-34 31 -20 33 6 53c71 54 221 87 322 42c51 -23 83 -62 93 -113c15 -81 -9 -141 -74 -177c57 -40 88 -95 101 -157c25 -117 -35 -194 -137 -232c-46 -16 -157 -46 -210 -35c-21 4 -76 61 -78 83c38 0 181 21 263 67c56 32 90 86 34 149c-50 57 -176 71 -228 72
c-41 -11 -23 58 0 70c3 2 6 3 8 4c7 4 317 126 202 164c-41 13 -173 -11 -211 -17c-43 -7 -74 14 -91 27z" />
    <glyph glyph-name="four" unicode="4" horiz-adv-x="624" 
d="M445 713c29 8 -5 -44 -6 -46c-48 -72 -88 -142 -144 -208c-40 -51 -69 -93 -113 -137c111 -8 129 -5 240 4c-1 53 1 112 11 153c21 43 80 55 130 56c23 7 9 -28 7 -35c-23 -68 -31 -162 -39 -237c-5 -68 -3 -150 -3 -221c4 -13 2 -23 -4 -33c-7 -11 -38 -17 -52 -18
c-26 12 -57 125 -55 154c2 23 4 47 5 72c-5 -2 -10 -3 -13 -3c-32 2 -66 1 -97 -1c-47 -7 -114 -14 -163 -5c-46 18 -81 78 -102 120c-15 20 17 13 27 10c14 38 41 90 51 101c26 21 49 49 69 76c30 51 61 117 95 163c35 32 104 36 156 35z" />
    <glyph glyph-name="five" unicode="5" horiz-adv-x="610" 
d="M62 695c-16 19 6 16 18 14c56 -10 130 -10 187 -12c54 1 133 13 186 23c10 7 20 6 34 3c13 -4 40 -32 49 -44c5 -27 -87 -79 -118 -82c-34 0 -72 -3 -106 -6c-16 -3 -38 -6 -61 -9c-4 -6 -7 -12 -10 -17c-17 -31 -31 -66 -44 -100l-10 -36c80 21 203 48 290 -5
c89 -55 86 -151 71 -225c-23 -109 -130 -174 -233 -202c-42 -12 -102 -27 -149 -15c-1 0 -7 2 -8 2c-46 13 -82 64 -67 81c2 1 11 -4 14 -5c44 -11 131 25 164 40c63 31 156 65 171 139c32 164 -193 81 -278 66c-9 0 -38 8 -51 10c-67 18 -58 55 -50 90c10 24 17 57 23 84
c6 29 12 111 34 122c-23 27 -43 62 -56 84z" />
    <glyph glyph-name="six" unicode="6" horiz-adv-x="628" 
d="M549 632c-53 2 -108 6 -175 -20c-168 -69 -234 -249 -191 -439c7 -32 19 -68 53 -85c77 -38 221 60 230 166c2 30 -6 95 -54 95c-30 4 -125 -26 -155 -26c-33 1 -51 33 -59 47c-1 19 89 57 104 62c53 16 123 18 180 -16c105 -62 116 -205 71 -283
c-38 -66 -103 -121 -177 -146c-135 -46 -261 27 -302 181c-42 155 -24 312 60 427c41 56 102 106 177 117c34 3 99 9 133 3c48 -7 89 -25 105 -83z" />
    <glyph glyph-name="seven" unicode="7" horiz-adv-x="568" 
d="M55 701c-22 20 22 15 29 14c63 -9 130 -15 193 -21c46 -3 115 7 157 18c8 7 15 7 27 6h7c20 -6 38 -31 47 -49c3 -14 -21 -62 -28 -69c-51 -58 -101 -180 -130 -256c-29 -80 -55 -201 -61 -289c4 -17 1 -29 -5 -43c-5 -13 -35 -29 -48 -34c-41 13 -53 176 -45 218
c16 56 30 112 47 168c16 66 43 159 76 224l-7 -1c-41 -5 -107 -9 -149 -1c-39 16 -85 80 -110 115z" />
    <glyph glyph-name="eight" unicode="8" horiz-adv-x="565" 
d="M507 132c6 -185 -249 -202 -384 -77c-68 64 -90 167 -42 233c22 30 58 54 99 77v1c-51 39 -95 80 -111 128c-12 41 -16 75 -2 112c30 85 129 86 205 33c39 -16 -39 -16 -51 -18c-24 -4 -49 -15 -54 -40c-4 -18 2 -36 9 -55c1 -4 8 -13 11 -16c24 -26 63 -53 106 -85v0v0
v0c49 28 89 58 103 97c6 16 8 48 -3 66c-17 26 -60 49 -89 59c-65 22 -82 27 -150 41c0 17 95 34 109 35c99 7 212 -48 235 -156c22 -99 -33 -173 -104 -222v-2c60 -56 110 -124 113 -211zM191 127c55 -52 200 -62 195 19c-3 53 -47 98 -101 141h-1
c-44 -21 -92 -47 -111 -72s-7 -65 18 -88z" />
    <glyph glyph-name="nine" unicode="9" horiz-adv-x="595" 
d="M58 63c54 -2 108 -6 176 20c169 69 234 251 192 441c-8 32 -20 68 -53 85c-78 39 -223 -60 -232 -166c-2 -31 6 -96 55 -96c30 -4 125 26 155 26c33 -1 51 -32 59 -47c2 -19 -89 -57 -104 -62c-53 -16 -123 -18 -181 16c-105 62 -116 205 -71 284c38 67 104 122 178 147
c136 46 262 -28 303 -182c42 -156 24 -314 -61 -429c-41 -56 -102 -106 -177 -117c-34 -3 -100 -9 -134 -4c-48 8 -89 26 -105 84z" />
    <glyph glyph-name="exclam" unicode="!" horiz-adv-x="290" 
d="M211 716v0c21 12 13 -28 12 -35c-13 -75 -19 -160 -28 -238c-5 -63 -4 -146 -3 -211c5 -13 3 -21 -2 -31c-6 -10 -37 -17 -50 -18c-29 10 -61 116 -60 147c5 37 7 80 8 118c-2 57 -6 150 4 201c17 41 76 57 119 67zM231 76c4 -2 21 -8 10 -9c-13 -11 -28 -77 -45 -76
c-10 0 -107 19 -110 37c5 3 16 44 16 50c-3 12 -3 27 7 33c26 3 94 -23 122 -35z" />
    <glyph glyph-name="question" unicode="?" horiz-adv-x="583" 
d="M331 75v0c4 -1 21 -7 10 -8c-13 -11 -28 -79 -46 -78c-10 0 -108 20 -112 38c5 3 16 45 17 50c-3 13 -4 29 7 35c26 3 96 -25 124 -37zM146 536c-20 -43 -79 35 -73 57c12 38 38 74 70 97c67 48 174 47 258 -6c101 -64 121 -168 85 -254c-39 -87 -118 -121 -182 -184
c-4 -6 -38 -56 -38 -56c-13 -8 -44 9 -61 4c-23 7 3 87 8 98c20 38 72 102 108 128c26 18 50 38 64 66c15 35 18 75 -29 101c-78 43 -165 -4 -210 -51z" />
    <glyph glyph-name="at" unicode="@" horiz-adv-x="784" 
d="M499 500c15 -4 17 -49 -9 -43c-30 7 -89 -2 -127 -21c-101 -51 8 -153 78 -24c27 53 96 20 88 -37c-7 -40 -22 -137 40 -72c39 41 47 105 32 165c-43 174 -281 168 -376 31c-39 -60 -47 -116 -37 -194c14 -92 89 -167 177 -200c44 -16 117 -19 162 -14c40 5 73 25 101 32
c19 5 36 2 52 -3c2 -40 -110 -93 -146 -104c-65 -16 -119 -14 -189 6c-144 45 -259 173 -265 320c-3 90 13 153 59 223c64 90 180 145 303 132c126 -14 228 -94 262 -219c25 -93 12 -189 -45 -255c-40 -45 -110 -77 -178 -35c-26 17 -45 42 -57 69c-30 -23 -63 -29 -103 -14
c-62 24 -80 93 -70 154c19 111 146 155 248 103z" />
    <glyph glyph-name="dollar" unicode="$" horiz-adv-x="638" 
d="M434 515c5 -33 -41 23 -55 33c-10 7 -20 12 -32 15c-1 -30 0 -69 0 -94c4 -9 1 -14 -4 -20c-6 -7 -36 -8 -45 -8c-14 1 -55 76 -51 93c1 7 3 13 3 20c-38 -17 -64 -47 -53 -74c19 -49 111 -78 156 -89c335 -86 294 -381 -31 -393c0 -5 -2 -9 -6 -13
c-5 -7 -35 -10 -44 -10c-5 0 -14 11 -22 26c-21 2 -41 6 -62 12c-30 6 -51 16 -73 37c-21 20 -39 49 -39 81c2 35 16 66 41 91c2 1 8 -50 19 -69c17 -31 54 -43 91 -48c1 12 2 24 3 35c-2 19 -6 64 5 78c23 10 90 -14 108 -8c-8 -28 -13 -60 -19 -84c-1 -5 -1 -11 -2 -18
c26 4 41 8 75 16c142 52 -5 138 -75 154c-86 19 -191 53 -233 139c-55 116 48 247 167 265c1 10 4 20 8 29c23 25 83 15 115 7c16 -1 14 -9 6 -19c-7 -9 -13 -23 -18 -39c19 -11 34 -26 48 -46c16 -31 24 -62 19 -99z" />
    <glyph glyph-name="percent" unicode="%" horiz-adv-x="833" 
d="M306 611v0c23 -20 -34 -12 -38 -12c-17 2 -38 1 -53 -4c-3 -1 -15 -8 -17 -11c-3 -4 -5 -8 -7 -13c-1 -6 -1 -10 1 -16c1 -5 3 -9 6 -14c2 -4 4 -6 8 -9l2 -2c5 -2 8 -3 13 -3c15 0 26 4 37 12c12 8 19 18 25 31c4 11 5 20 3 32c-1 2 -2 3 -3 5c-4 6 -3 11 -3 17
c2 13 10 38 13 55c13 16 70 -48 83 -70c16 -35 18 -65 10 -98c-3 -13 -8 -24 -17 -34c-12 -13 -24 -22 -40 -32c-28 -16 -54 -24 -90 -24c-15 1 -28 3 -43 8c-8 3 -15 5 -23 9c-21 11 -37 23 -54 40c-16 18 -26 34 -35 55c-9 23 -13 40 -13 63s5 41 16 60c12 21 25 33 46 45
c6 4 12 6 18 8c61 6 119 -47 155 -98zM684 180v0c23 -20 -34 -13 -39 -12c-17 1 -37 1 -52 -5c-4 -1 -15 -8 -17 -11c-4 -4 -6 -8 -7 -13s-1 -10 0 -15c2 -6 4 -10 7 -15c2 -3 4 -6 7 -9c1 0 3 -1 3 -2c5 -2 8 -3 13 -3c15 0 25 5 37 12c12 9 19 18 25 32c3 10 5 20 3 32
c-1 1 -2 2 -3 4c-4 6 -3 11 -3 17c2 13 9 38 12 56c14 15 71 -49 83 -70c16 -36 19 -65 11 -99c-4 -12 -8 -24 -17 -33c-13 -13 -24 -23 -40 -33c-28 -16 -54 -23 -90 -23c-15 1 -28 2 -43 8c-8 2 -15 5 -23 9c-21 10 -37 22 -54 40c-16 18 -26 33 -35 55s-13 40 -13 62
c0 24 5 41 15 61c12 20 26 33 46 45c7 3 12 5 19 7c61 7 119 -47 155 -97zM691 703c29 -2 -12 -39 -15 -42c-78 -83 -152 -216 -210 -317c-50 -92 -103 -212 -138 -313c-2 -17 -7 -29 -18 -41c-9 -11 -43 -14 -58 -13c-37 24 -3 187 12 220c30 58 59 119 88 179
c42 94 101 220 162 298c44 43 109 50 177 29z" />
    <glyph glyph-name="ampersand" unicode="&#x26;" horiz-adv-x="779" 
d="M722 529c28 16 -1 -45 -4 -49c-35 -57 -83 -90 -142 -119c1 -1 3 -2 4 -3c65 -66 87 -163 47 -240c-48 -93 -159 -139 -266 -136c-230 6 -381 262 -263 407c42 50 81 61 141 81c-38 39 -61 65 -68 120c-2 30 3 50 20 73c18 24 42 35 71 44c75 26 219 -5 239 -106
c-13 -13 -36 -16 -55 -6c-83 45 -157 47 -166 9c-5 -24 16 -62 75 -115c33 -32 33 -78 4 -102c-28 -23 -64 -7 -126 -34c-51 -23 -82 -63 -65 -122c21 -75 100 -130 179 -130c70 0 129 29 173 76c48 50 40 97 12 164c-27 -14 -52 -35 -68 -60c-9 -15 -14 -28 -16 -45
c3 -11 -1 -18 -6 -27s-38 -29 -48 -34c-39 12 -56 142 -11 190c23 25 45 42 76 61l97 69c7 5 14 11 21 15c17 6 107 11 145 19z" />
    <glyph glyph-name="quotesingle" unicode="'" horiz-adv-x="287" 
d="M214 698c15 0 15 -8 7 -19c-17 -26 -27 -66 -36 -97c-4 -20 -4 -69 -3 -91c6 -7 4 -10 -1 -13c-5 -4 -39 -4 -47 -4c-18 0 -64 63 -59 79c4 16 6 37 8 53c-2 29 -3 71 10 93c22 17 89 5 121 -1z" />
    <glyph glyph-name="quotedbl" unicode="&#x22;" horiz-adv-x="465" 
d="M211 698c15 0 15 -8 7 -19c-17 -26 -27 -66 -36 -97c-4 -20 -4 -69 -3 -91c6 -7 4 -10 -1 -13c-5 -4 -39 -4 -47 -4c-18 0 -64 63 -59 79c4 16 6 37 8 53c-2 29 -3 71 10 93c22 17 89 5 121 -1zM385 698c15 0 15 -8 7 -19c-17 -26 -27 -66 -36 -97c-4 -20 -4 -69 -3 -91
c6 -7 4 -10 -1 -13c-5 -4 -39 -4 -47 -4c-18 0 -64 63 -59 79c4 16 6 37 8 53c-2 29 -3 71 10 93c22 17 89 5 121 -1z" />
    <glyph glyph-name="parenleft" unicode="(" horiz-adv-x="466" 
d="M350 683c24 -11 -18 -29 -23 -32c-32 -21 -53 -53 -72 -87c-33 -63 -49 -121 -57 -195v-6c-2 -68 9 -135 44 -203c14 -25 29 -45 51 -66c2 -1 5 -2 7 -4c13 -9 21 -17 32 -28c10 -12 33 -53 41 -68c-2 -22 -110 24 -128 35c-42 27 -72 57 -99 99c-6 10 -11 20 -15 31
c-26 71 -37 131 -38 202c-1 8 -1 16 -1 25c-1 89 13 168 50 243c7 14 14 27 24 39c44 47 118 61 184 15z" />
    <glyph glyph-name="parenright" unicode=")" horiz-adv-x="454" 
d="M115 683c66 46 141 32 185 -15c9 -12 16 -25 23 -39c37 -75 51 -154 50 -243c0 -9 0 -17 -1 -25c-1 -71 -12 -131 -37 -202c-5 -11 -10 -21 -16 -31c-27 -42 -57 -72 -99 -99c-18 -11 -126 -57 -128 -35c8 15 31 56 42 68c11 11 18 19 31 28c3 2 5 3 7 4
c22 21 37 41 51 66c35 68 46 135 44 203v6c-8 74 -24 132 -57 195c-19 34 -40 66 -72 87c-5 3 -47 21 -23 32z" />
    <glyph glyph-name="plus" unicode="+" horiz-adv-x="679" 
d="M83 426c-21 23 28 12 33 11c49 -11 101 -17 151 -23c-5 39 -7 79 -1 111c18 41 85 57 130 62c24 10 14 -28 12 -35c-12 -45 -15 -95 -17 -144c39 1 79 6 111 9c10 7 19 5 32 1c12 -5 37 -35 45 -48c3 -27 -85 -76 -114 -77c-23 2 -48 2 -71 2c4 -42 10 -88 13 -126
c7 -14 5 -25 0 -37c-6 -12 -38 -24 -52 -27c-22 8 -73 124 -75 152c1 10 1 22 1 33c-30 0 -60 2 -84 7c-45 19 -87 83 -114 129z" />
    <glyph glyph-name="hyphen" unicode="-" horiz-adv-x="592" 
d="M116 437c-14 20 10 14 22 11c47 -14 102 -20 150 -26c33 -3 92 2 126 5c8 5 15 3 24 -3c10 -6 29 -39 33 -51c7 -14 -60 -69 -80 -65c-22 3 -48 3 -70 3c-34 -5 -83 -10 -118 0c-36 19 -70 90 -87 126z" />
    <glyph glyph-name="comma" unicode="," horiz-adv-x="343" 
d="M104 159c32 6 99 18 121 1c13 -22 12 -64 10 -93c2 -16 4 -37 8 -53c5 -16 -41 -79 -59 -79c-8 0 -42 0 -47 4c-5 3 -7 6 -1 13c1 22 1 71 -3 91c-9 31 -19 71 -36 97c-8 11 -8 19 7 19z" />
    <glyph glyph-name="period" unicode="." horiz-adv-x="401" 
d="M287 122c5 -2 26 -11 12 -13c-16 -16 -36 -117 -58 -116c-12 0 -137 30 -141 57c5 5 19 67 21 75c-4 19 -5 42 9 52c33 4 121 -37 157 -55z" />
    <glyph glyph-name="colon" unicode=":" horiz-adv-x="481" 
d="M277 374c-11 0 -124 23 -128 44c5 3 18 52 19 58c-3 14 -4 32 8 39c30 4 110 -28 143 -41c5 -2 24 -9 11 -10c-15 -13 -32 -91 -53 -90zM319 166c5 -2 24 -9 11 -10c-15 -13 -32 -91 -53 -90c-11 0 -124 23 -128 44c5 3 18 51 19 58c-3 14 -4 32 8 39
c30 4 110 -28 143 -41z" />
    <glyph glyph-name="asciicircum" unicode="^" horiz-adv-x="572" 
d="M195 504c-21 14 -76 39 -56 75c2 1 102 99 114 111c8 8 16 14 26 20c18 10 42 10 60 -6c45 -48 76 -90 116 -141c9 -5 13 -12 14 -21c0 -9 -17 -32 -23 -40c-34 -30 -97 51 -141 74c-35 -15 -71 -64 -110 -72z" />
    <glyph glyph-name="less" unicode="&#x3c;" horiz-adv-x="729" 
d="M578 607c36 -4 -18 -34 -24 -37c-64 -33 -119 -82 -179 -120c-56 -41 -90 -72 -149 -109c64 -36 102 -67 164 -108c65 -38 127 -87 197 -120c6 -3 64 -33 29 -37c-53 -20 -137 -46 -195 -27c-49 27 -92 69 -131 107c-66 50 -181 106 -205 182c-20 52 135 152 178 189
c35 38 71 80 117 107c55 19 143 -7 198 -27z" />
    <glyph glyph-name="greater" unicode="&#x3e;" horiz-adv-x="719" 
d="M140 607c55 20 143 46 198 27c46 -27 83 -69 117 -107c43 -37 198 -137 178 -189c-23 -76 -139 -132 -204 -182c-40 -38 -82 -80 -132 -107c-58 -19 -142 7 -195 27c-35 4 23 34 30 37c69 33 131 82 196 120c62 41 100 72 164 108c-59 37 -93 68 -148 109
c-61 38 -116 87 -180 120c-6 3 -60 33 -24 37z" />
    <glyph glyph-name="equal" unicode="=" horiz-adv-x="833" 
d="M260 445c-46 18 -91 80 -113 112c-18 18 13 13 28 10c62 -13 134 -17 196 -23c43 -3 120 2 165 4c10 5 20 3 31 -2c14 -5 37 -35 44 -45c9 -13 -79 -61 -105 -58c-29 3 -63 3 -91 3c-44 -5 -109 -9 -155 -1zM567 276c14 -5 37 -35 44 -45c9 -13 -79 -61 -105 -58
c-29 3 -63 3 -91 3c-44 -5 -109 -9 -155 -1c-46 18 -91 80 -113 112c-18 18 13 13 28 10c62 -13 134 -17 196 -23c43 -3 120 2 165 4c10 5 20 3 31 -2z" />
    <glyph glyph-name="slash" unicode="/" horiz-adv-x="589" 
d="M514 717c30 -2 -12 -39 -14 -42c-78 -84 -142 -227 -201 -329c-50 -92 -109 -213 -144 -314c-1 -17 -7 -29 -18 -41c-9 -11 -37 -14 -53 -13c-37 25 8 145 23 178c78 165 161 353 274 499c44 43 66 82 133 62z" />
    <glyph glyph-name="a" unicode="a" horiz-adv-x="515" 
d="M321 590v0c11 12 31 -38 35 -50c29 -94 46 -190 60 -286c4 -20 9 -46 14 -72c4 -1 7 -2 10 -3c15 -5 36 -32 41 -41c4 -8 -28 -22 -35 -25c8 -31 16 -61 26 -85c6 -8 8 -15 7 -24c-1 -6 -21 -23 -27 -28c-30 -8 -75 71 -90 109h-1c-27 1 -56 1 -83 -2
c-28 -5 -116 -20 -142 -13c-5 -8 -9 -16 -14 -23c-4 -17 -12 -27 -25 -37c-12 -10 -43 -12 -60 -8c-7 9 8 71 22 119c-13 13 -25 26 -36 38c-22 16 29 13 32 13c7 -1 14 -1 21 -1c13 35 37 63 50 102c15 44 63 210 79 243c32 59 67 47 116 74zM184 170h58c32 0 68 4 103 6
c-4 18 -8 38 -12 55c-15 59 -35 127 -48 189c-20 -57 -43 -117 -67 -170c-8 -18 -15 -36 -23 -55c-4 -8 -8 -17 -11 -25z" />
    <glyph glyph-name="b" unicode="b" horiz-adv-x="498" 
d="M191 490v0c19 12 9 -34 8 -36c-6 -36 -12 -72 -17 -110c2 1 3 1 4 1c56 14 100 33 140 69c41 38 43 69 -26 83c-55 12 -158 3 -203 -13c-34 7 -65 57 -64 76c13 5 43 9 62 13c84 14 240 28 320 -44c30 -28 47 -67 43 -102c-7 -41 -52 -95 -86 -110c14 -4 32 -14 45 -23
c51 -40 54 -104 44 -154c-17 -87 -92 -130 -177 -148c-10 -2 -21 -4 -31 -6c-36 -8 -74 -8 -114 -1c-30 5 -78 27 -100 53c0 3 29 8 65 12c-15 35 -30 88 -29 106c4 30 6 65 7 96c-3 51 -4 124 5 170c16 39 65 57 104 68zM171 59c39 5 74 9 81 11c46 16 81 37 106 75
c12 17 18 44 16 66c0 15 -2 20 -16 25c-40 13 -94 3 -132 -2c-7 0 -13 0 -21 2c-13 4 -24 10 -33 18l-1 -7c-5 -53 -3 -121 -2 -176c1 -4 2 -8 2 -12z" />
    <glyph glyph-name="c" unicode="c" horiz-adv-x="502" 
d="M438 514c24 -28 -12 -55 -32 -56c-44 16 -118 46 -156 32c-30 -11 -59 -32 -76 -56c-31 -44 -49 -114 -53 -171c-3 -51 11 -116 53 -159c47 -46 129 -30 175 -10c13 8 65 52 65 53c18 8 44 -5 65 -1c19 -7 -33 -79 -39 -85c-26 -27 -53 -45 -89 -60
c-55 -22 -116 -26 -178 6c-75 39 -118 115 -134 189c-10 50 -10 106 -2 153c15 87 63 188 147 221c47 19 127 20 181 -5c25 -13 53 -29 73 -51z" />
    <glyph glyph-name="d" unicode="d" horiz-adv-x="533" 
d="M170 492c-38 -6 -72 -16 -93 -21c-16 26 -26 61 -31 76c70 39 344 71 427 -89c73 -141 -9 -441 -252 -471c-71 -8 -151 1 -203 75c26 7 93 -18 178 4c46 14 63 28 101 52c125 80 197 395 -75 380c4 -40 -32 -310 -23 -368c6 -40 -42 -40 -45 -39c-30 11 -44 187 -41 213
c9 126 -25 153 57 188z" />
    <glyph glyph-name="e" unicode="e" horiz-adv-x="493" 
d="M93 470c-27 16 -51 66 -63 92c-8 13 0 13 11 10c37 -10 102 -10 141 -11c57 0 127 7 185 10c35 7 63 -5 90 -38c-2 -18 -119 -54 -144 -55c-48 0 -71 2 -117 -4c-6 -42 -10 -85 -14 -128c12 0 26 -2 39 -4c34 -1 85 4 120 5c7 4 14 3 22 -1c10 -5 26 -30 31 -40
c0 -16 -58 -50 -79 -50c-85 5 -81 -5 -141 -3c-3 -45 -2 -99 2 -136c4 -8 4 -13 0 -19c-2 -2 -8 -5 -15 -8c31 -1 61 -2 86 -3c47 -1 118 6 163 14c6 5 12 5 20 1c7 -4 24 -28 29 -36c10 -28 -50 -59 -76 -60c-33 0 -67 -2 -100 -4c-44 -4 -121 -12 -165 -4
c-38 14 -63 62 -77 96c-10 16 5 12 16 8c18 -4 41 -7 64 -8c-23 21 -39 76 -39 98c1 13 8 105 6 110c-12 18 -22 37 -30 51c-12 18 16 10 29 7c0 40 1 82 6 110z" />
    <glyph glyph-name="f" unicode="f" horiz-adv-x="495" 
d="M174 469c-27 -3 -55 -5 -72 -2c-29 14 -56 67 -69 94c-9 13 -1 13 10 9c37 -9 103 -9 141 -11c58 0 127 8 186 11c36 8 63 -4 92 -39c-2 -17 -119 -53 -144 -54c-32 1 -64 0 -95 -2c2 -12 -2 -111 -2 -131c9 -1 19 -2 29 -3c35 -2 85 2 120 5c8 4 15 2 24 -2
c8 -5 25 -30 30 -39c2 -17 -56 -51 -77 -51c-85 4 -63 -2 -129 -4l-5 -224c3 -12 1 -20 -5 -28s-32 -10 -44 -8c-22 12 -41 106 -40 129c5 35 6 75 6 112c-2 18 -4 39 -5 61c-15 20 -29 42 -38 59c-13 19 19 9 35 6c-3 63 -7 85 52 112z" />
    <glyph glyph-name="g" unicode="g" horiz-adv-x="518" 
d="M442 450c22 -29 -64 23 -74 28c-90 39 -166 -13 -206 -75s-62 -165 -28 -248c26 -64 85 -104 144 -81c56 22 76 65 92 119c0 1 1 3 2 5h-3c-27 -4 -66 -8 -93 0c-28 15 -54 68 -68 96c-10 16 9 12 18 9c36 -11 80 -15 117 -20c26 -2 72 2 99 3c6 5 12 3 19 -1
c8 -5 22 -31 26 -39c5 -11 -41 -48 -61 -51c3 -9 4 -16 4 -18c1 -23 0 -46 -5 -66c-22 -54 -48 -94 -103 -120c-71 -30 -164 3 -221 71c-70 81 -80 192 -67 279c14 103 85 216 192 239c31 6 56 5 89 -6c59 -26 101 -67 127 -124z" />
    <glyph glyph-name="h" unicode="h" horiz-adv-x="522" 
d="M190 560c19 10 9 -30 8 -33c-12 -61 -20 -133 -26 -200c73 -7 97 -9 172 -3c-1 66 -2 167 12 222c16 36 63 41 103 32c16 -3 12 -8 7 -17c-18 -46 -28 -160 -33 -226c27 -3 54 -36 55 -37c1 -12 -29 -30 -59 -44c-1 -67 1 -142 7 -202c5 -13 5 -22 1 -34
c-3 -11 -25 -22 -35 -26c-34 6 -62 135 -62 166c2 25 2 52 2 79c-20 0 -41 -1 -62 -1c-33 -3 -77 -6 -116 -4c-2 -62 -1 -134 4 -193c5 -13 5 -23 1 -35c-3 -10 -26 -24 -36 -28c-30 8 -59 133 -59 163c3 43 4 87 5 129c-21 21 -39 46 -53 66c-17 18 27 9 31 8
c7 0 14 -2 21 -3c1 55 3 114 12 156c14 40 59 56 100 65z" />
    <glyph glyph-name="i" unicode="i" horiz-adv-x="218" 
d="M151 570c15 6 13 -8 11 -16c-14 -55 -13 -187 -16 -251c-1 -87 3 -177 2 -264c3 -13 2 -21 -3 -31c-7 -10 -31 -11 -43 -10c-30 15 -46 120 -45 145c3 49 3 102 2 151c-3 64 -12 177 -4 235c14 41 59 35 96 41z" />
    <glyph glyph-name="j" unicode="j" horiz-adv-x="414" 
d="M362 566c17 15 13 -39 13 -41c-1 -79 2 -158 -1 -238c-4 -56 -8 -113 -21 -165v0c-6 -24 -11 -44 -21 -66c-10 -19 -20 -34 -39 -45s-35 -17 -59 -20c-20 -2 -37 -1 -59 3c-40 12 -69 30 -98 62c-11 13 -20 24 -29 39c-14 19 -20 35 -22 57c-1 6 -1 13 0 20
c0 10 4 18 10 26c10 12 25 21 43 20c3 -1 1 -29 3 -36c1 -11 4 -20 9 -30c11 -21 23 -36 43 -50c18 -14 28 -18 48 -23c0 0 3 -1 4 -1c8 -2 14 -3 21 -2c13 1 23 5 34 10c5 3 10 12 13 17c4 8 7 17 9 26c2 8 3 16 5 25c7 49 9 100 10 152c0 45 -2 91 0 135
c6 58 30 104 84 125z" />
    <glyph glyph-name="k" unicode="k" horiz-adv-x="486" 
d="M154 569c19 1 8 -19 5 -26c-15 -43 -22 -113 -27 -177c20 16 39 37 55 56c22 28 68 109 85 126c25 21 82 21 117 23c22 9 2 -31 1 -34c-38 -67 -76 -112 -126 -168c29 -72 45 -115 82 -188c24 -42 70 -107 104 -144c8 -4 11 -10 13 -18c3 -7 -7 -32 -10 -39
c-20 -16 -93 37 -111 62c-19 31 -39 62 -58 92c-21 28 -88 129 -90 157c-13 -13 -52 -59 -69 -63c-1 -64 1 -132 3 -194c4 -11 3 -19 -2 -28c-5 -8 -30 -11 -40 -10c-32 11 -50 109 -50 134c3 46 3 96 3 142c-2 73 -5 180 8 247c16 41 61 56 107 50z" />
    <glyph glyph-name="l" unicode="l" horiz-adv-x="446" 
d="M172 572c17 0 10 -12 7 -21c-19 -54 -25 -168 -30 -231c-4 -67 -3 -155 2 -225c3 -4 3 -8 3 -12c9 0 17 -1 24 -1c47 -1 110 6 158 9c10 5 20 3 32 -1c12 -3 34 -26 41 -37c0 -18 -91 -53 -115 -54c-28 2 -57 1 -84 -1c-31 -4 -84 -11 -116 -3c-28 15 -47 68 -56 95
c-5 13 0 14 10 9c9 -4 22 -7 35 -9c-15 32 -25 80 -25 97c4 43 4 88 4 131c-2 62 -4 162 8 217c15 36 61 43 102 37z" />
    <glyph glyph-name="m" unicode="m" horiz-adv-x="546" 
d="M170 564c5 2 8 1 10 -2c9 4 10 -2 9 -12c-1 -40 26 -137 38 -183c10 -30 23 -67 38 -104c16 34 30 71 44 107c15 48 41 128 68 167c13 12 29 16 49 15c19 13 44 18 68 20c18 5 10 -19 8 -26c-15 -72 -11 -162 -12 -239c0 -79 8 -165 12 -246c4 -15 3 -25 -2 -37
c-4 -12 -27 -22 -40 -25c-23 11 -52 136 -53 163c2 44 -1 92 -2 136c-2 16 -3 33 -5 52l-3 -6c-15 -34 -60 -216 -83 -242c-12 -17 -41 2 -60 25c-69 83 -66 123 -103 214c-1 -15 -3 -28 -5 -42c-8 -81 -12 -173 -15 -257c3 -15 2 -25 -4 -38c-5 -11 -29 -22 -41 -24
c-26 13 -42 148 -40 176c6 46 9 96 12 143c2 61 2 161 13 216c15 36 61 43 99 49z" />
    <glyph glyph-name="n" unicode="n" horiz-adv-x="504" 
d="M51 506c16 45 99 106 123 33c27 -77 69 -161 104 -236c22 -41 47 -86 72 -130v101c-4 68 -8 164 1 228c13 43 55 64 97 77c18 13 10 -33 10 -36c-13 -83 -17 -178 -22 -264c-2 -66 2 -157 10 -225c5 -12 4 -20 1 -30c-29 -90 -158 92 -170 114c-19 40 -41 80 -63 119
c-23 38 -52 86 -76 132c-3 -36 -5 -72 -8 -106c-4 -73 -1 -163 4 -238c4 -14 3 -23 -1 -35c-3 -11 -26 -22 -37 -25c-28 9 -56 130 -56 159c2 44 3 91 3 136c-2 67 -4 163 8 226z" />
    <glyph glyph-name="p" unicode="p" horiz-adv-x="511" 
d="M134 485v0c-38 9 -76 22 -113 40c-51 9 140 65 278 44c135 -19 193 -111 179 -227c-9 -70 -65 -113 -127 -136c-38 -13 -93 -28 -137 -19c-6 2 -12 4 -19 7c-1 -54 -1 -121 3 -171c4 -8 4 -13 0 -19c-4 -5 -30 -10 -37 -12c-33 0 -55 85 -55 111c4 39 4 82 5 122
c-2 65 -6 157 -1 219c4 16 13 30 24 41zM198 249c68 20 186 57 195 119c3 23 5 61 -18 82c-35 34 -127 26 -165 25c-3 -76 -6 -150 -12 -226z" />
    <glyph glyph-name="q" unicode="q" horiz-adv-x="570" 
d="M281 515c20 -12 -23 -13 -39 -19c-5 -2 -10 -6 -15 -9c-82 -55 -111 -253 -61 -357c17 -37 42 -55 79 -52s69 16 96 38c-25 28 -56 64 -68 91c-6 31 29 66 48 84c8 11 13 1 16 -9c10 -29 35 -68 57 -100c32 61 44 148 16 226c-6 18 -13 33 -24 49c-12 16 -47 49 -62 58
c-35 27 -46 34 -86 53c6 17 84 6 103 0c36 -13 61 -30 89 -58c52 -54 80 -131 85 -199c6 -72 -21 -155 -59 -208c22 -22 46 -45 64 -61c10 -4 14 -9 18 -18c4 -8 0 -35 -2 -44c-15 -14 -97 26 -118 48c-5 6 -10 12 -16 18c-36 -28 -81 -48 -131 -55
c-77 -10 -148 35 -188 111c-51 99 -52 238 -18 328c13 34 29 57 57 80c25 20 51 32 88 32c25 0 50 -6 71 -27z" />
    <glyph glyph-name="r" unicode="r" horiz-adv-x="509" 
d="M190 480v0c-28 0 -75 -2 -110 7c-26 7 -54 34 -60 45c14 20 51 25 57 26c70 20 121 20 197 18c197 -6 306 -275 80 -349c16 -27 33 -54 43 -70c24 -37 64 -85 93 -120c7 -5 10 -11 11 -19s-15 -26 -20 -32c-19 -8 -78 29 -93 50c-14 23 -33 49 -50 70
c-21 27 -58 69 -75 102c-20 -4 -52 -3 -73 4c-4 -50 -3 -119 4 -166c4 -10 4 -17 1 -26c-3 -7 -26 -19 -34 -23c-29 4 -62 98 -62 128c3 35 4 73 6 108c-1 55 -1 136 9 186c12 31 44 48 76 61zM197 277c52 14 171 36 193 92c21 49 -28 111 -95 111c-25 0 -49 -1 -74 -1
c1 -10 -1 -25 -1 -27c-10 -57 -16 -117 -23 -175z" />
    <glyph glyph-name="s" unicode="s" horiz-adv-x="459" 
d="M374 454c1 -16 -21 4 -28 7c-41 25 -99 31 -139 23c-67 -14 -22 -53 19 -86c61 -51 121 -104 164 -172c31 -49 55 -103 43 -156c-29 -120 -227 -113 -335 -32c-21 14 -48 40 -60 61c-15 26 -19 47 -18 75c2 32 34 62 62 73c3 -1 -4 -63 -1 -76c3 -17 9 -29 21 -44
c39 -46 108 -56 160 -60c44 -4 100 7 86 64c-18 70 -121 155 -174 196c-29 23 -53 44 -75 75c-53 77 -25 150 54 173c65 19 166 -16 208 -78c8 -14 16 -29 13 -43z" />
    <glyph glyph-name="u" unicode="u" horiz-adv-x="482" 
d="M165 568c21 8 2 -38 1 -40c-23 -70 -78 -343 2 -417c30 -27 74 -39 110 -40c65 -1 48 22 50 95c4 41 5 86 6 128c-4 63 -8 152 0 210c12 41 55 60 96 70c17 11 9 -30 8 -33c-12 -76 -13 -167 -19 -245c-3 -76 -1 -157 -3 -234c3 -15 1 -26 -5 -37c-5 -12 -29 -22 -41 -24
c-4 1 -7 5 -9 12c-43 -25 -107 -31 -160 -11c-27 10 -63 34 -86 55c-75 72 -84 214 -81 294c1 45 4 91 15 133c18 51 58 80 116 84z" />
    <glyph glyph-name="v" unicode="v" horiz-adv-x="468" 
d="M92 569c13 6 13 0 13 -11c1 -51 38 -176 53 -231c18 -57 41 -121 65 -182c2 9 3 17 5 23c17 46 31 96 45 143c15 66 38 175 63 234c26 39 68 25 109 29c17 6 9 -13 5 -20c-32 -60 -65 -180 -88 -248c-25 -80 -46 -165 -70 -247c1 -10 -2 -17 -10 -24
c-23 -18 -27 -48 -53 -49c-29 -3 -84 120 -95 149c-14 50 -32 100 -48 149c-22 55 -62 158 -70 213c2 40 43 59 76 72z" />
    <glyph glyph-name="w" unicode="w" horiz-adv-x="652" 
d="M118 562c15 4 12 -3 11 -15c-6 -58 16 -189 25 -254c5 -31 12 -66 19 -101c8 30 15 61 21 90c11 68 25 160 48 221c22 42 70 59 116 65c21 9 2 -34 0 -36c-19 -46 18 -213 29 -269c6 -26 15 -56 24 -85c11 34 20 71 29 107c12 65 28 148 51 209c25 44 75 70 123 84
c22 16 0 -42 -3 -48c-32 -82 -57 -170 -84 -254c-18 -65 -33 -141 -47 -207c2 -24 -29 -76 -51 -80c-41 -7 -85 114 -92 140c-7 33 -18 69 -27 103c-8 21 -16 43 -22 66c-2 -7 -4 -13 -6 -20c-20 -77 -33 -156 -53 -235c0 -13 -4 -24 -12 -34c-8 -11 -35 -16 -48 -16
c-15 11 -63 102 -68 125c-7 47 -17 96 -26 143c-16 64 -41 170 -43 233c6 41 47 63 86 68z" />
    <glyph glyph-name="x" unicode="x" horiz-adv-x="512" 
d="M71 574c7 20 24 -19 26 -23c31 -59 81 -128 127 -189c41 63 87 132 130 180c37 33 82 32 131 20c21 -1 -4 -26 -8 -29c-64 -69 -124 -181 -183 -262c49 -61 102 -121 151 -185c11 -8 17 -19 21 -32c4 -14 -7 -36 -15 -47c-40 -12 -157 115 -215 183
c-42 -60 -82 -120 -133 -177c-5 -15 -23 -23 -35 -31c-10 -8 -36 -5 -49 -1c-22 23 41 148 58 171c30 39 61 81 89 122c-40 53 -81 116 -112 164c-20 48 -10 97 17 136z" />
    <glyph glyph-name="y" unicode="y" horiz-adv-x="474" 
d="M74 566c8 14 16 -9 18 -16c17 -48 53 -100 82 -144c21 -28 54 -64 83 -95c13 73 33 167 61 225c26 35 74 44 120 22c18 -6 4 -17 -2 -24c-41 -53 -76 -180 -95 -250c-19 -76 -35 -173 -44 -253c1 -12 0 -20 -6 -29c-5 -8 -29 -12 -41 -12c-31 12 -33 128 -28 154
c7 31 14 62 20 94c-26 14 -56 35 -65 46c-17 22 -37 46 -55 69c-32 33 -72 80 -92 120c-9 37 20 73 44 93z" />
    <glyph glyph-name="z" unicode="z" horiz-adv-x="495" 
d="M52 555c-10 16 8 12 18 10c47 -11 114 -9 161 -9c43 2 105 12 147 21c7 5 14 5 23 1c9 -3 28 -26 33 -35c2 -7 -3 -16 -12 -24c2 -1 3 -1 4 -2c16 -8 8 -11 -1 -19c-43 -37 -110 -146 -143 -198c-40 -65 -80 -144 -115 -215c29 0 59 0 87 -1c44 2 106 13 149 22
c8 5 16 4 27 2c11 -3 32 -26 39 -34c3 -21 -70 -65 -95 -68c-28 -1 -58 -4 -86 -7c-44 -8 -107 -17 -153 -13c-41 12 -82 57 -109 92c-20 16 29 12 32 12c9 -1 18 -2 27 -2c5 43 23 97 32 113c26 41 50 85 74 129c19 39 47 95 75 140v0c-38 -7 -99 -16 -139 -11
c-35 14 -61 63 -75 96z" />
    <glyph glyph-name="A" unicode="A" 
d="M401 737v0c14 16 39 -47 44 -62c36 -118 58 -238 75 -357c5 -26 11 -58 18 -91l12 -3c19 -7 45 -40 51 -51c5 -10 -35 -28 -43 -32c10 -39 20 -76 32 -106c8 -10 10 -19 9 -30c-1 -8 -27 -29 -34 -35c-38 -10 -94 89 -112 136h-2c-34 2 -70 1 -103 -2
c-35 -6 -146 -25 -178 -16c-6 -10 -11 -20 -17 -29c-5 -21 -16 -34 -32 -47c-15 -12 -54 -14 -75 -9c-9 11 10 88 28 148c-17 16 -32 33 -45 48c-28 20 36 16 40 16c9 -1 17 -1 26 -1c16 43 46 79 62 127c19 55 79 263 99 304c40 74 84 59 145 92zM230 213c24 0 48 0 72 -1
c41 1 85 5 129 8c-5 23 -10 47 -15 69c-19 73 -43 159 -60 236c-25 -71 -54 -146 -84 -213c-10 -22 -18 -45 -28 -68c-5 -10 -10 -21 -14 -31z" />
    <glyph glyph-name="D" unicode="D" horiz-adv-x="666" 
d="M213 615c-48 -8 -91 -20 -117 -26c-20 32 -32 76 -38 95c87 48 429 89 533 -112c91 -176 -11 -551 -315 -588c-89 -10 -188 1 -253 94c32 8 116 -23 222 5c58 17 79 34 126 64c156 101 246 494 -94 475c5 -50 -39 -387 -28 -459c7 -50 -53 -50 -56 -49
c-38 14 -56 234 -52 266c12 157 -31 191 72 235z" />
    <glyph glyph-name="t" unicode="t" horiz-adv-x="520" 
d="M20 561c-16 17 18 10 25 9c61 -12 134 -11 195 -12c55 2 123 12 178 18c10 6 20 5 32 1c12 -3 36 -27 44 -37c2 -21 -86 -59 -111 -61c-21 0 -42 -1 -63 -2c0 -5 -1 -11 -2 -15c-12 -64 -10 -172 -12 -244c-1 -66 3 -145 7 -213c4 -7 4 -12 -1 -16c-10 -4 -30 3 -41 3
c-41 14 -53 62 -54 95c3 41 1 87 1 128c-5 63 -14 167 -7 223c5 15 14 24 25 30c-38 -5 -82 -8 -115 -3c-43 13 -78 60 -101 96z" />
    <glyph glyph-name="o" unicode="o" horiz-adv-x="539" 
d="M258 514c17 -12 -18 -10 -35 -15c-6 -2 -11 -5 -17 -9c-52 -35 -74 -129 -79 -192c-2 -57 2 -115 29 -172c21 -41 50 -60 90 -56c147 13 208 208 160 344c-7 19 -14 35 -25 51c-12 17 -47 49 -63 57c-39 25 -50 31 -92 48c6 18 87 10 106 5c37 -12 62 -28 92 -57
c66 -66 97 -177 87 -255c-12 -94 -53 -185 -129 -237c-57 -39 -148 -64 -226 -17c-137 82 -147 305 -110 418c13 38 30 64 61 87c25 20 51 32 86 31c25 -2 47 -9 65 -31z" />
    <glyph glyph-name="O" unicode="O" horiz-adv-x="674" 
d="M322 643c22 -16 -22 -13 -43 -19c-8 -3 -14 -6 -21 -11c-65 -44 -93 -162 -99 -241c-3 -71 2 -143 36 -214c26 -52 62 -75 113 -70c183 16 259 260 200 430c-9 23 -18 43 -32 63c-15 21 -58 61 -79 71c-48 32 -62 39 -114 61c7 22 108 12 132 6c46 -15 78 -35 115 -71
c82 -83 121 -222 109 -319c-15 -118 -66 -231 -161 -296c-72 -49 -186 -81 -283 -22c-171 103 -184 381 -137 523c16 47 37 80 76 109c31 25 63 40 107 38c31 -2 59 -11 81 -38z" />
    <glyph glyph-name="B" unicode="B" horiz-adv-x="622" 
d="M239 613v0c23 15 11 -43 10 -46c-8 -44 -15 -90 -21 -137c2 1 3 1 5 1c69 18 124 41 175 86c51 48 53 87 -33 104c-69 15 -198 4 -254 -16c-42 9 -81 71 -80 95c17 6 54 11 78 16c105 18 300 35 400 -55c37 -35 59 -83 53 -127c-8 -52 -64 -119 -107 -138
c17 -5 40 -17 56 -29c64 -50 68 -130 55 -192c-21 -109 -115 -162 -221 -185c-13 -2 -26 -5 -39 -7c-45 -11 -92 -11 -142 -2c-38 6 -98 34 -125 66c0 4 36 10 81 16c-19 43 -37 110 -36 132c5 38 7 81 8 120c-3 64 -5 155 7 213c20 48 81 71 130 85zM214 74
c49 6 92 11 101 14c57 19 101 46 133 93c15 21 22 55 20 83c-1 19 -3 25 -20 31c-50 16 -118 4 -165 -2c-9 0 -17 0 -27 2c-16 5 -30 13 -41 23l-1 -9c-6 -66 -4 -152 -3 -220c2 -5 3 -10 3 -15z" />
    <glyph glyph-name="C" unicode="C" horiz-adv-x="628" 
d="M548 642c30 -35 -16 -68 -40 -69c-56 20 -148 57 -196 40c-37 -14 -73 -41 -95 -71c-38 -54 -61 -142 -66 -213c-4 -64 14 -145 66 -199c59 -58 162 -38 219 -13c17 11 81 66 82 67c22 10 55 -7 81 -2c24 -8 -42 -98 -49 -106c-33 -34 -66 -56 -111 -75
c-69 -27 -145 -32 -223 8c-93 48 -147 144 -167 236c-13 63 -13 132 -3 191c19 109 79 235 184 277c59 23 159 24 226 -7c32 -16 67 -36 92 -64z" />
    <glyph glyph-name="quotedblbase" unicode="&#x201e;" horiz-adv-x="457" 
d="M248 130c32 6 99 18 121 1c13 -22 12 -64 10 -93c2 -16 4 -37 8 -53c5 -16 -41 -79 -59 -79c-8 0 -42 0 -47 4c-5 3 -7 6 -1 13c1 22 1 71 -3 91c-9 31 -19 71 -36 97c-8 11 -8 19 7 19zM74 130c32 6 99 18 121 1c13 -22 12 -64 10 -93c2 -16 4 -37 8 -53
c5 -16 -41 -79 -59 -79c-8 0 -42 0 -47 4c-5 3 -7 6 -1 13c1 22 1 71 -3 91c-9 31 -19 71 -36 97c-8 11 -8 19 7 19z" />
    <glyph glyph-name="quotedblright" unicode="&#x201d;" horiz-adv-x="462" 
d="M254 708c32 6 99 18 121 1c13 -22 12 -64 10 -93c2 -16 4 -37 8 -53c5 -16 -41 -79 -59 -79c-8 0 -42 0 -47 4c-5 3 -7 6 -1 13c1 22 1 71 -3 91c-9 31 -19 71 -36 97c-8 11 -8 19 7 19zM80 708c32 6 99 18 121 1c13 -22 12 -64 10 -93c2 -16 4 -37 8 -53
c5 -16 -41 -79 -59 -79c-8 0 -42 0 -47 4c-5 3 -7 6 -1 13c1 22 1 71 -3 91c-9 31 -19 71 -36 97c-8 11 -8 19 7 19z" />
    <glyph glyph-name="quotedblleft" unicode="&#x201c;" horiz-adv-x="476" 
d="M217 708c15 0 15 -8 7 -19c-17 -26 -27 -66 -36 -97c-4 -20 -4 -69 -3 -91c6 -7 4 -10 -1 -13c-5 -4 -39 -4 -47 -4c-18 0 -64 63 -59 79c4 16 6 37 8 53c-2 29 -3 71 10 93c22 17 89 5 121 -1zM391 708c15 0 15 -8 7 -19c-17 -26 -27 -66 -36 -97c-4 -20 -4 -69 -3 -91
c6 -7 4 -10 -1 -13c-5 -4 -39 -4 -47 -4c-18 0 -64 63 -59 79c4 16 6 37 8 53c-2 29 -3 71 10 93c22 17 89 5 121 -1z" />
    <glyph glyph-name="quoteleft" unicode="&#x2018;" horiz-adv-x="341" 
d="M229 708c15 0 15 -8 7 -19c-17 -26 -27 -66 -36 -97c-4 -20 -4 -69 -3 -91c6 -7 4 -10 -1 -13c-5 -4 -39 -4 -47 -4c-18 0 -64 63 -59 79c4 16 6 37 8 53c-2 29 -3 71 10 93c22 17 89 5 121 -1z" />
    <glyph glyph-name="quoteright" unicode="&#x2019;" horiz-adv-x="322" 
d="M99 708c32 6 99 18 121 1c13 -22 12 -64 10 -93c2 -16 4 -37 8 -53c5 -16 -41 -79 -59 -79c-8 0 -42 0 -47 4c-5 3 -7 6 -1 13c1 22 1 71 -3 91c-9 31 -19 71 -36 97c-8 11 -8 19 7 19z" />
    <glyph glyph-name="semicolon" unicode=";" horiz-adv-x="428" 
d="M253 374c-11 0 -124 23 -128 44c5 3 18 52 19 58c-3 14 -4 32 8 39c30 4 110 -28 143 -41c5 -2 24 -9 11 -10c-15 -13 -32 -91 -53 -90zM154 247c-15 2 -16 -6 -10 -18c13 -28 16 -69 20 -101c1 -21 -6 -69 -11 -91c-7 -6 -5 -9 -1 -13c5 -5 38 -10 46 -11
c18 -3 73 52 71 69c-2 16 -1 37 0 54c6 28 14 69 4 93c-19 20 -87 19 -119 18z" />
    <glyph glyph-name="grave" unicode="`" horiz-adv-x="393" 
d="M104 764c15 20 50 60 73 57c21 -11 45 -44 60 -68c11 -11 24 -26 36 -37c13 -11 22 -81 11 -89c-5 -4 -26 -19 -32 -18c-5 0 -7 1 -8 9c-12 18 -41 56 -55 69c-24 21 -54 47 -79 59c-12 6 -16 11 -6 18z" />
    <glyph glyph-name="circumflex" unicode="&#x2c6;" horiz-adv-x="434" 
d="M129 562c-18 10 -66 30 -49 58c2 1 89 77 100 86c6 6 14 11 23 15c15 8 36 8 51 -4c40 -38 67 -70 101 -109c9 -4 12 -10 13 -17c0 -7 -15 -24 -20 -31c-30 -23 -85 40 -123 57c-31 -11 -62 -49 -96 -55z" />
    <glyph glyph-name="ellipsis" unicode="&#x2026;" horiz-adv-x="1041" 
d="M287 122c5 -2 26 -11 12 -13c-16 -16 -36 -117 -58 -116c-12 0 -137 30 -141 57c5 5 19 67 21 75c-4 19 -5 42 9 52c33 4 121 -37 157 -55zM603 119c5 -2 26 -11 12 -13c-16 -16 -36 -117 -58 -116c-12 0 -137 30 -141 57c5 5 19 67 21 75c-4 19 -5 42 9 52
c33 4 121 -37 157 -55zM915 122c5 -2 26 -11 12 -13c-16 -16 -36 -117 -58 -116c-12 0 -137 30 -141 57c5 5 19 67 21 75c-4 19 -5 42 9 52c33 4 121 -37 157 -55z" />
    <glyph glyph-name="bullet" unicode="&#x2022;" horiz-adv-x="463" 
d="M338 331c0 -54 -44 -100 -99 -100c-56 0 -100 46 -100 100c0 56 44 100 100 100c55 0 99 -44 99 -100z" />
    <glyph glyph-name="endash" unicode="&#x2013;" horiz-adv-x="710" 
d="M242 287c-46 18 -91 80 -113 112c-18 18 13 13 28 10c62 -13 134 -17 196 -23c43 -3 120 2 165 4c10 5 20 3 31 -2c14 -5 37 -35 44 -45c9 -13 -79 -61 -105 -58c-29 3 -63 3 -91 3c-44 -5 -109 -9 -155 -1z" />
    <glyph glyph-name="emdash" unicode="&#x2014;" horiz-adv-x="770" 
d="M129 286c-46 18 -17 79 -39 111c-18 18 13 13 28 10c62 -13 134 -17 196 -23c43 -3 254 2 299 4c10 5 20 3 31 -2c14 -5 37 -35 44 -45c9 -13 -79 -61 -105 -58c-29 3 -63 3 -91 3c-44 -5 -317 -8 -363 0z" />
    <glyph glyph-name="asciitilde" unicode="~" horiz-adv-x="659" 
d="M85 269v0c-11 64 53 98 105 112c49 14 102 7 147 -24c34 -22 76 -42 116 -42c17 0 31 2 47 10c7 7 4 8 21 14c7 3 36 -7 44 -7c16 -7 -22 -52 -35 -63c-22 -20 -64 -35 -95 -29c-56 9 -88 26 -136 53c-42 24 -119 0 -145 -31c-17 -20 -51 -7 -69 7z" />
    <glyph glyph-name="tilde" unicode="&#x2dc;" horiz-adv-x="491" 
d="M73 633c-8 45 37 69 74 79c35 10 73 5 105 -17c24 -16 54 -30 82 -30c12 0 22 2 33 7c5 5 3 6 15 10c5 2 26 -5 32 -5c11 -5 -16 -37 -25 -44c-16 -15 -46 -25 -68 -21c-39 6 -62 18 -96 38c-30 17 -85 0 -103 -22c-12 -15 -36 -5 -49 5z" />
    <glyph glyph-name="bracketleft" unicode="[" horiz-adv-x="359" 
d="M95 747v0c-5 13 6 11 13 8c40 -17 111 -22 151 -20c5 4 8 2 12 -1c5 -5 12 -29 13 -36c2 -11 -42 -49 -53 -46c-12 3 -27 3 -39 3c-5 0 -11 -1 -18 -2c-3 -85 -4 -197 -9 -282c-3 -90 -2 -239 -1 -330c2 -11 2 -21 0 -32c12 -2 24 -3 31 -4c22 -1 54 3 77 3
c5 4 8 2 12 -2c4 -6 3 -29 2 -37c-5 -14 -24 -44 -41 -43c-12 2 -29 2 -41 1c-22 -4 -56 -9 -77 -1c-15 12 -41 30 -42 54c-14 46 -3 193 -3 213c3 51 5 103 5 154c-3 78 -8 203 -3 280c13 75 31 22 11 120z" />
    <glyph glyph-name="bracketright" unicode="]" horiz-adv-x="359" 
d="M263 747c-20 -98 -2 -45 11 -120c5 -77 0 -202 -3 -280c0 -51 2 -103 5 -154c0 -20 11 -167 -3 -213c-1 -24 -27 -42 -42 -54c-21 -8 -55 -3 -77 1c-12 1 -29 1 -41 -1c-17 -1 -36 29 -41 43c-1 8 -2 31 2 37c4 4 7 6 12 2c23 0 55 -4 77 -3c7 1 19 2 31 4
c-2 11 -2 21 0 32c1 91 2 240 -1 330c-5 85 -6 197 -9 282c-7 1 -13 2 -18 2c-12 0 -27 0 -39 -3c-11 -3 -55 35 -53 46c1 7 8 31 13 36c4 3 7 5 12 1c40 -2 111 3 151 20c7 3 18 5 13 -8z" />
    <glyph glyph-name="backslash" unicode="\" horiz-adv-x="590" 
d="M76 717c67 20 89 -19 133 -62c113 -146 196 -334 274 -499c15 -33 60 -153 23 -178c-16 -1 -44 2 -53 13c-11 12 -17 24 -18 41c-35 101 -94 222 -144 314c-59 102 -123 245 -201 329c-2 3 -44 40 -14 42z" />
    <glyph glyph-name="underscore" unicode="_" horiz-adv-x="746" 
d="M119 -171c-47 14 -17 61 -40 86c-18 14 13 10 29 8c62 -10 135 -13 198 -18c44 -2 257 2 303 3c10 4 20 3 31 -1c15 -4 38 -27 45 -35c9 -10 -80 -47 -106 -45c-30 2 -64 2 -93 2c-44 -4 -321 -6 -367 0z" />
    <glyph glyph-name="numbersign" unicode="#" horiz-adv-x="662" 
d="M417 708v0c22 18 -1 -44 -4 -54c-24 -58 -48 -114 -73 -169l73 -5c24 58 49 117 76 167c30 47 75 57 122 79c22 20 2 -42 1 -46c-26 -67 -56 -133 -88 -198c9 1 17 1 25 2c12 5 23 3 35 0c12 -4 32 -26 38 -42c3 -5 -25 -36 -66 -53c-23 -8 -59 -10 -83 -7l-42 -87
c19 1 38 3 57 4c22 3 27 10 48 1c3 -1 8 -5 10 -8c34 -25 33 -34 3 -53c-18 -13 -38 -20 -58 -26c-59 -23 -45 -16 -103 -16l-52 -133c-3 -17 -8 -31 -17 -48c-5 -7 -35 -25 -45 -27c-28 -3 -3 144 3 166c2 13 6 26 10 38c-22 -1 -46 -3 -71 -4c-14 -41 -25 -81 -34 -118
c-1 -16 -4 -26 -11 -41c-1 -4 -3 -9 -6 -14c-10 -18 -39 -30 -59 -32c-6 2 1 49 0 63c-1 41 2 98 13 142c-12 0 -23 1 -32 3c-39 14 -54 63 -60 106c-4 18 5 15 16 11c27 -9 71 -12 116 -15l40 101c-8 1 -15 2 -21 3c-43 18 -72 69 -92 112c-17 21 35 10 37 8
c37 -7 76 -12 114 -19c16 41 33 83 50 117c29 46 82 73 130 92zM253 291h79l43 96l-80 1z" />
    <glyph glyph-name="braceleft" unicode="{" horiz-adv-x="442" 
d="M356 670v0c19 -16 -66 -9 -77 -10c-80 -6 -35 -160 -61 -250c-10 -35 -25 -37 -65 -43c18 -8 55 -4 62 -35c11 -54 2 -174 7 -243c2 -40 -3 -38 27 -40c30 -1 89 -4 114 -18c9 -5 -99 -48 -114 -48c-21 -2 -37 -1 -56 8c-23 11 -34 31 -41 53c-18 61 -13 103 -11 162
c1 60 12 83 -55 109c-17 6 -30 26 -30 44c-1 60 79 48 83 94c3 25 4 50 5 75c2 31 0 117 11 141c1 9 3 16 8 24c23 37 69 30 105 22c27 -7 71 -19 88 -45z" />
    <glyph glyph-name="braceright" unicode="}" horiz-adv-x="442" 
d="M63 670c17 26 61 38 88 45c36 8 82 15 105 -22c5 -8 7 -15 8 -24c11 -24 9 -110 11 -141c1 -25 2 -50 5 -75c4 -46 84 -34 83 -94c0 -18 -13 -38 -30 -44c-67 -26 -56 -49 -55 -109c2 -59 7 -101 -11 -162c-7 -22 -18 -42 -41 -53c-19 -9 -35 -10 -56 -8
c-15 0 -123 43 -114 48c25 14 84 17 114 18c30 2 25 0 27 40c5 69 -4 189 7 243c7 31 44 27 62 35c-40 6 -55 8 -65 43c-26 90 19 244 -61 250c-11 1 -96 -6 -77 10v0z" />
    <glyph glyph-name="asterisk" unicode="*" horiz-adv-x="478" 
d="M273 703v0c16 11 10 -18 8 -23c-4 -16 -8 -34 -11 -52c11 7 22 11 30 14c26 1 61 -33 91 -43c18 -3 -1 -18 -9 -21c-29 -12 -56 -24 -84 -37c13 -9 27 -17 38 -24c4 0 5 -1 8 -3c15 -9 9 -42 5 -53c-4 -12 -80 -1 -96 10c-2 -12 -2 -25 -2 -34c2 -7 -25 -42 -36 -44
c-8 0 -18 7 -26 30c-7 14 -22 44 -20 61c-21 -9 -40 -19 -60 -28c-6 -6 -12 -6 -19 -4c-8 3 -21 24 -23 32c-3 22 31 60 51 68c4 2 7 3 11 4c-8 7 -15 14 -20 21c-16 28 0 77 9 106c3 17 18 -2 22 -6c11 -15 25 -27 38 -40c0 4 1 8 3 10c13 28 64 47 92 56z" />
    <glyph glyph-name="quotesinglbase" unicode="&#x201a;" horiz-adv-x="364" 
d="M101 130c32 6 99 18 121 1c13 -22 12 -64 10 -93c2 -16 4 -37 8 -53c5 -16 -41 -79 -59 -79c-8 0 -42 0 -47 4c-5 3 -7 6 -1 13c1 22 1 71 -3 91c-9 31 -19 71 -36 97c-8 11 -8 19 7 19z" />
    <glyph glyph-name="Agrave" unicode="&#xc0;" 
d="M401 737v0c14 16 39 -47 44 -62c36 -118 58 -238 75 -357c5 -26 11 -58 18 -91l12 -3c19 -7 45 -40 51 -51c5 -10 -35 -28 -43 -32c10 -39 20 -76 32 -106c8 -10 10 -19 9 -30c-1 -8 -27 -29 -34 -35c-38 -10 -94 89 -112 136h-2c-34 2 -70 1 -103 -2
c-35 -6 -146 -25 -178 -16c-6 -10 -11 -20 -17 -29c-5 -21 -16 -34 -32 -47c-15 -12 -54 -14 -75 -9c-9 11 10 88 28 148c-17 16 -32 33 -45 48c-28 20 36 16 40 16c9 -1 17 -1 26 -1c16 43 46 79 62 127c19 55 79 263 99 304c40 74 84 59 145 92zM230 213c24 0 48 0 72 -1
c41 1 85 5 129 8c-5 23 -10 47 -15 69c-19 73 -43 159 -60 236c-25 -71 -54 -146 -84 -213c-10 -22 -18 -45 -28 -68c-5 -10 -10 -21 -14 -31zM231 914c15 20 50 60 73 57c21 -11 45 -44 60 -68c11 -11 24 -26 36 -37c13 -11 22 -81 11 -89c-5 -4 -26 -19 -32 -18
c-5 0 -7 1 -8 9c-12 18 -41 56 -55 69c-24 21 -54 47 -79 59c-12 6 -16 11 -6 18z" />
    <glyph glyph-name="Aacute" unicode="&#xc1;" 
d="M462 908c10 -7 6 -12 -6 -18c-25 -12 -55 -38 -79 -59c-14 -13 -43 -51 -55 -69c-1 -8 -3 -9 -8 -9c-6 -1 -27 14 -32 18c-11 8 -2 78 11 89c12 11 25 26 36 37c15 24 39 57 60 68c23 3 58 -37 73 -57zM401 737v0c14 16 39 -47 44 -62c36 -118 58 -238 75 -357
c5 -26 11 -58 18 -91l12 -3c19 -7 45 -40 51 -51c5 -10 -35 -28 -43 -32c10 -39 20 -76 32 -106c8 -10 10 -19 9 -30c-1 -8 -27 -29 -34 -35c-38 -10 -94 89 -112 136h-2c-34 2 -70 1 -103 -2c-35 -6 -146 -25 -178 -16c-6 -10 -11 -20 -17 -29c-5 -21 -16 -34 -32 -47
c-15 -12 -54 -14 -75 -9c-9 11 10 88 28 148c-17 16 -32 33 -45 48c-28 20 36 16 40 16c9 -1 17 -1 26 -1c16 43 46 79 62 127c19 55 79 263 99 304c40 74 84 59 145 92zM230 213c24 0 48 0 72 -1c41 1 85 5 129 8c-5 23 -10 47 -15 69c-19 73 -43 159 -60 236
c-25 -71 -54 -146 -84 -213c-10 -22 -18 -45 -28 -68c-5 -10 -10 -21 -14 -31z" />
    <glyph glyph-name="acute" unicode="&#xb4;" horiz-adv-x="358" 
d="M276 764c10 -7 6 -12 -6 -18c-25 -12 -55 -38 -79 -59c-14 -13 -43 -51 -55 -69c-1 -8 -3 -9 -8 -9c-6 -1 -27 14 -32 18c-11 8 -2 78 11 89c12 11 25 26 36 37c15 24 39 57 60 68c23 3 58 -37 73 -57z" />
    <glyph glyph-name="Acircumflex" unicode="&#xc2;" 
d="M401 737v0c14 16 39 -47 44 -62c36 -118 58 -238 75 -357c5 -26 11 -58 18 -91l12 -3c19 -7 45 -40 51 -51c5 -10 -35 -28 -43 -32c10 -39 20 -76 32 -106c8 -10 10 -19 9 -30c-1 -8 -27 -29 -34 -35c-38 -10 -94 89 -112 136h-2c-34 2 -70 1 -103 -2
c-35 -6 -146 -25 -178 -16c-6 -10 -11 -20 -17 -29c-5 -21 -16 -34 -32 -47c-15 -12 -54 -14 -75 -9c-9 11 10 88 28 148c-17 16 -32 33 -45 48c-28 20 36 16 40 16c9 -1 17 -1 26 -1c16 43 46 79 62 127c19 55 79 263 99 304c40 74 84 59 145 92zM230 213c24 0 48 0 72 -1
c41 1 85 5 129 8c-5 23 -10 47 -15 69c-19 73 -43 159 -60 236c-25 -71 -54 -146 -84 -213c-10 -22 -18 -45 -28 -68c-5 -10 -10 -21 -14 -31zM280 759c-18 10 -66 30 -49 58c2 1 89 77 100 86c6 6 14 11 23 15c15 8 36 8 51 -4c40 -38 67 -70 101 -109c9 -4 12 -10 13 -17
c0 -7 -15 -24 -20 -31c-30 -23 -85 40 -123 57c-31 -11 -62 -49 -96 -55z" />
    <glyph glyph-name="Atilde" unicode="&#xc3;" 
d="M401 737v0c14 16 39 -47 44 -62c36 -118 58 -238 75 -357c5 -26 11 -58 18 -91l12 -3c19 -7 45 -40 51 -51c5 -10 -35 -28 -43 -32c10 -39 20 -76 32 -106c8 -10 10 -19 9 -30c-1 -8 -27 -29 -34 -35c-38 -10 -94 89 -112 136h-2c-34 2 -70 1 -103 -2
c-35 -6 -146 -25 -178 -16c-6 -10 -11 -20 -17 -29c-5 -21 -16 -34 -32 -47c-15 -12 -54 -14 -75 -9c-9 11 10 88 28 148c-17 16 -32 33 -45 48c-28 20 36 16 40 16c9 -1 17 -1 26 -1c16 43 46 79 62 127c19 55 79 263 99 304c40 74 84 59 145 92zM230 213c24 0 48 0 72 -1
c41 1 85 5 129 8c-5 23 -10 47 -15 69c-19 73 -43 159 -60 236c-25 -71 -54 -146 -84 -213c-10 -22 -18 -45 -28 -68c-5 -10 -10 -21 -14 -31zM170 800c-8 45 37 69 74 79c35 10 73 5 105 -17c24 -16 54 -30 82 -30c12 0 22 2 33 7c5 5 3 6 15 10c5 2 26 -5 32 -5
c11 -5 -16 -37 -25 -44c-16 -15 -46 -25 -68 -21c-39 6 -62 18 -96 38c-30 17 -85 0 -103 -22c-12 -15 -36 -5 -49 5z" />
    <glyph glyph-name="dieresis" unicode="&#xa8;" horiz-adv-x="574" 
d="M226 629c-10 0 -108 20 -111 39c4 2 16 45 16 50c-2 12 -3 27 7 34c26 3 96 -25 124 -36c5 -2 21 -8 10 -9c-13 -11 -28 -78 -46 -78zM431 629c-10 0 -108 20 -111 39c4 2 16 45 16 50c-2 12 -3 27 7 34c26 3 96 -25 124 -36c5 -2 21 -8 10 -9c-13 -11 -28 -78 -46 -78z
" />
    <glyph glyph-name="Adieresis" unicode="&#xc4;" 
d="M401 737v0c14 16 39 -47 44 -62c36 -118 58 -238 75 -357c5 -26 11 -58 18 -91l12 -3c19 -7 45 -40 51 -51c5 -10 -35 -28 -43 -32c10 -39 20 -76 32 -106c8 -10 10 -19 9 -30c-1 -8 -27 -29 -34 -35c-38 -10 -94 89 -112 136h-2c-34 2 -70 1 -103 -2
c-35 -6 -146 -25 -178 -16c-6 -10 -11 -20 -17 -29c-5 -21 -16 -34 -32 -47c-15 -12 -54 -14 -75 -9c-9 11 10 88 28 148c-17 16 -32 33 -45 48c-28 20 36 16 40 16c9 -1 17 -1 26 -1c16 43 46 79 62 127c19 55 79 263 99 304c40 74 84 59 145 92zM230 213c24 0 48 0 72 -1
c41 1 85 5 129 8c-5 23 -10 47 -15 69c-19 73 -43 159 -60 236c-25 -71 -54 -146 -84 -213c-10 -22 -18 -45 -28 -68c-5 -10 -10 -21 -14 -31zM246 779c-10 0 -108 20 -111 39c4 2 16 45 16 50c-2 12 -3 27 7 34c26 3 96 -25 124 -36c5 -2 21 -8 10 -9
c-13 -11 -28 -78 -46 -78zM451 779c-10 0 -108 20 -111 39c4 2 16 45 16 50c-2 12 -3 27 7 34c26 3 96 -25 124 -36c5 -2 21 -8 10 -9c-13 -11 -28 -78 -46 -78z" />
    <glyph glyph-name="degree" unicode="&#xb0;" horiz-adv-x="338" 
d="M149 712c58 0 104 -47 104 -103c0 -58 -46 -104 -104 -104s-103 46 -103 104c0 56 45 103 103 103zM149 554c30 0 55 25 55 55s-25 54 -55 54s-54 -24 -54 -54s24 -55 54 -55z" />
    <glyph glyph-name="Aring" unicode="&#xc5;" 
d="M331 987c56 0 101 -46 101 -100c0 -56 -45 -101 -101 -101s-100 45 -100 101c0 54 44 100 100 100zM331 834c29 0 53 24 53 53s-24 52 -53 52s-52 -23 -52 -52s23 -53 52 -53zM401 737v0c14 16 39 -47 44 -62c36 -118 58 -238 75 -357c5 -26 11 -58 18 -91l12 -3
c19 -7 45 -40 51 -51c5 -10 -35 -28 -43 -32c10 -39 20 -76 32 -106c8 -10 10 -19 9 -30c-1 -8 -27 -29 -34 -35c-38 -10 -94 89 -112 136h-2c-34 2 -70 1 -103 -2c-35 -6 -146 -25 -178 -16c-6 -10 -11 -20 -17 -29c-5 -21 -16 -34 -32 -47c-15 -12 -54 -14 -75 -9
c-9 11 10 88 28 148c-17 16 -32 33 -45 48c-28 20 36 16 40 16c9 -1 17 -1 26 -1c16 43 46 79 62 127c19 55 79 263 99 304c40 74 84 59 145 92zM230 213c24 0 48 0 72 -1c41 1 85 5 129 8c-5 23 -10 47 -15 69c-19 73 -43 159 -60 236c-25 -71 -54 -146 -84 -213
c-10 -22 -18 -45 -28 -68c-5 -10 -10 -21 -14 -31z" />
    <glyph glyph-name="ordmasculine" unicode="&#xba;" horiz-adv-x="420" 
d="M208 651c11 -8 -12 -7 -23 -10c-4 -1 -7 -3 -11 -6c-34 -23 -49 -85 -52 -126c-1 -37 1 -75 19 -112c14 -27 33 -40 59 -37c96 8 136 136 105 225c-5 13 -10 23 -17 34c-8 11 -30 32 -41 37c-25 16 -33 20 -60 31c4 12 57 7 69 4c24 -8 41 -19 60 -38
c44 -43 64 -116 57 -167c-8 -61 -34 -121 -84 -155c-37 -26 -97 -42 -148 -11c-90 54 -96 200 -72 274c9 25 20 42 40 57c16 13 33 21 56 20c17 -1 31 -6 43 -20z" />
    <glyph glyph-name="Ydieresis" unicode="&#x178;" horiz-adv-x="592" 
d="M92 708c11 17 21 -12 23 -21c21 -60 66 -125 103 -179c26 -36 67 -81 103 -119c16 91 41 208 77 281c32 44 92 55 150 27c22 -7 4 -21 -3 -29c-51 -67 -95 -226 -119 -313c-24 -95 -44 -216 -55 -316c2 -15 0 -25 -7 -36s-37 -15 -51 -15c-39 15 -42 159 -36 192
c9 39 18 78 26 118c-33 17 -70 43 -82 57c-21 28 -46 58 -69 86c-40 42 -90 100 -114 150c-12 47 24 91 54 117zM221 779c-10 0 -108 20 -111 39c4 2 16 45 16 50c-2 12 -3 27 7 34c26 3 96 -25 124 -36c5 -2 21 -8 10 -9c-13 -11 -28 -78 -46 -78zM426 779
c-10 0 -108 20 -111 39c4 2 16 45 16 50c-2 12 -3 27 7 34c26 3 96 -25 124 -36c5 -2 21 -8 10 -9c-13 -11 -28 -78 -46 -78z" />
    <glyph glyph-name="ccedilla" unicode="&#xe7;" horiz-adv-x="502" 
d="M472 147c19 -7 -33 -79 -39 -85c-26 -27 -53 -45 -89 -60c-20 -8 -42 -14 -63 -16c0 -8 0 -17 5 -23c10 -17 22 5 37 -7c29 -21 32 -73 9 -102c-33 -32 -73 -30 -108 -20c-21 7 -36 15 -10 34c6 3 8 -1 14 -3c17 -1 73 -3 73 23c3 40 -47 30 -50 68c0 4 -1 18 -2 29
c-27 1 -55 8 -83 23c-75 39 -118 115 -134 189c-10 50 -10 106 -2 153c15 87 63 188 147 221c47 19 127 20 181 -5c25 -13 53 -29 73 -51c24 -28 -12 -55 -32 -56c-44 16 -118 46 -156 32c-30 -11 -59 -32 -76 -56c-31 -44 -49 -114 -53 -171c-3 -51 11 -116 53 -159
c47 -46 129 -30 175 -10c13 8 65 52 65 53c18 8 44 -5 65 -1z" />
    <glyph glyph-name="cedilla" unicode="&#xb8;" horiz-adv-x="304" 
d="M153 -5c2 -9 0 -20 6 -28c10 -17 22 5 37 -7c29 -21 32 -73 9 -102c-33 -32 -73 -30 -108 -20c-21 7 -36 15 -10 34c6 3 8 -1 14 -3c17 -1 73 -3 73 23c3 40 -47 30 -50 68c0 6 -3 37 -1 44c4 6 32 6 30 -9z" />
    <glyph glyph-name="Ccedilla" unicode="&#xc7;" horiz-adv-x="628" 
d="M600 179c24 -8 -42 -98 -49 -106c-33 -34 -66 -56 -111 -75c-37 -14 -76 -23 -116 -21c1 -5 2 -9 5 -13c10 -17 22 5 37 -7c29 -21 32 -73 9 -102c-33 -32 -73 -30 -108 -20c-21 7 -36 15 -10 34c6 3 8 -1 14 -3c17 -1 73 -3 73 23c3 40 -47 30 -50 68c0 3 -1 13 -2 23
c-25 5 -50 13 -75 26c-93 48 -147 144 -167 236c-13 63 -13 132 -3 191c19 109 79 235 184 277c59 23 159 24 226 -7c32 -16 67 -36 92 -64c30 -35 -16 -68 -40 -69c-56 20 -148 57 -196 40c-37 -14 -73 -41 -95 -71c-38 -54 -61 -142 -66 -213c-4 -64 14 -145 66 -199
c59 -58 162 -38 219 -13c17 11 81 66 82 67c22 10 55 -7 81 -2z" />
    <glyph glyph-name="egrave" unicode="&#xe8;" horiz-adv-x="493" 
d="M93 470c-27 16 -51 66 -63 92c-8 13 0 13 11 10c37 -10 102 -10 141 -11c57 0 127 7 185 10c35 7 63 -5 90 -38c-2 -18 -119 -54 -144 -55c-48 0 -71 2 -117 -4c-6 -42 -10 -85 -14 -128c12 0 26 -2 39 -4c34 -1 85 4 120 5c7 4 14 3 22 -1c10 -5 26 -30 31 -40
c0 -16 -58 -50 -79 -50c-85 5 -81 -5 -141 -3c-3 -45 -2 -99 2 -136c4 -8 4 -13 0 -19c-2 -2 -8 -5 -15 -8c31 -1 61 -2 86 -3c47 -1 118 6 163 14c6 5 12 5 20 1c7 -4 24 -28 29 -36c10 -28 -50 -59 -76 -60c-33 0 -67 -2 -100 -4c-44 -4 -121 -12 -165 -4
c-38 14 -63 62 -77 96c-10 16 5 12 16 8c18 -4 41 -7 64 -8c-23 21 -39 76 -39 98c1 13 8 105 6 110c-12 18 -22 37 -30 51c-12 18 16 10 29 7c0 40 1 82 6 110zM156 764c15 20 50 60 73 57c21 -11 45 -44 60 -68c11 -11 24 -26 36 -37c13 -11 22 -81 11 -89
c-5 -4 -26 -19 -32 -18c-5 0 -7 1 -8 9c-12 18 -41 56 -55 69c-24 21 -54 47 -79 59c-12 6 -16 11 -6 18z" />
    <glyph glyph-name="eacute" unicode="&#xe9;" horiz-adv-x="493" 
d="M93 470c-27 16 -51 66 -63 92c-8 13 0 13 11 10c37 -10 102 -10 141 -11c57 0 127 7 185 10c35 7 63 -5 90 -38c-2 -18 -119 -54 -144 -55c-48 0 -71 2 -117 -4c-6 -42 -10 -85 -14 -128c12 0 26 -2 39 -4c34 -1 85 4 120 5c7 4 14 3 22 -1c10 -5 26 -30 31 -40
c0 -16 -58 -50 -79 -50c-85 5 -81 -5 -141 -3c-3 -45 -2 -99 2 -136c4 -8 4 -13 0 -19c-2 -2 -8 -5 -15 -8c31 -1 61 -2 86 -3c47 -1 118 6 163 14c6 5 12 5 20 1c7 -4 24 -28 29 -36c10 -28 -50 -59 -76 -60c-33 0 -67 -2 -100 -4c-44 -4 -121 -12 -165 -4
c-38 14 -63 62 -77 96c-10 16 5 12 16 8c18 -4 41 -7 64 -8c-23 21 -39 76 -39 98c1 13 8 105 6 110c-12 18 -22 37 -30 51c-12 18 16 10 29 7c0 40 1 82 6 110zM337 764c10 -7 6 -12 -6 -18c-25 -12 -55 -38 -79 -59c-14 -13 -43 -51 -55 -69c-1 -8 -3 -9 -8 -9
c-6 -1 -27 14 -32 18c-11 8 -2 78 11 89c12 11 25 26 36 37c15 24 39 57 60 68c23 3 58 -37 73 -57z" />
    <glyph glyph-name="ecircumflex" unicode="&#xea;" horiz-adv-x="493" 
d="M93 470c-27 16 -51 66 -63 92c-8 13 0 13 11 10c37 -10 102 -10 141 -11c57 0 127 7 185 10c35 7 63 -5 90 -38c-2 -18 -119 -54 -144 -55c-48 0 -71 2 -117 -4c-6 -42 -10 -85 -14 -128c12 0 26 -2 39 -4c34 -1 85 4 120 5c7 4 14 3 22 -1c10 -5 26 -30 31 -40
c0 -16 -58 -50 -79 -50c-85 5 -81 -5 -141 -3c-3 -45 -2 -99 2 -136c4 -8 4 -13 0 -19c-2 -2 -8 -5 -15 -8c31 -1 61 -2 86 -3c47 -1 118 6 163 14c6 5 12 5 20 1c7 -4 24 -28 29 -36c10 -28 -50 -59 -76 -60c-33 0 -67 -2 -100 -4c-44 -4 -121 -12 -165 -4
c-38 14 -63 62 -77 96c-10 16 5 12 16 8c18 -4 41 -7 64 -8c-23 21 -39 76 -39 98c1 13 8 105 6 110c-12 18 -22 37 -30 51c-12 18 16 10 29 7c0 40 1 82 6 110zM160 562c-18 10 -66 30 -49 58c2 1 89 77 100 86c6 6 14 11 23 15c15 8 36 8 51 -4c40 -38 67 -70 101 -109
c9 -4 12 -10 13 -17c0 -7 -15 -24 -20 -31c-30 -23 -85 40 -123 57c-31 -11 -62 -49 -96 -55z" />
    <glyph glyph-name="edieresis" unicode="&#xeb;" horiz-adv-x="493" 
d="M93 470c-27 16 -51 66 -63 92c-8 13 0 13 11 10c37 -10 102 -10 141 -11c57 0 127 7 185 10c35 7 63 -5 90 -38c-2 -18 -119 -54 -144 -55c-48 0 -71 2 -117 -4c-6 -42 -10 -85 -14 -128c12 0 26 -2 39 -4c34 -1 85 4 120 5c7 4 14 3 22 -1c10 -5 26 -30 31 -40
c0 -16 -58 -50 -79 -50c-85 5 -81 -5 -141 -3c-3 -45 -2 -99 2 -136c4 -8 4 -13 0 -19c-2 -2 -8 -5 -15 -8c31 -1 61 -2 86 -3c47 -1 118 6 163 14c6 5 12 5 20 1c7 -4 24 -28 29 -36c10 -28 -50 -59 -76 -60c-33 0 -67 -2 -100 -4c-44 -4 -121 -12 -165 -4
c-38 14 -63 62 -77 96c-10 16 5 12 16 8c18 -4 41 -7 64 -8c-23 21 -39 76 -39 98c1 13 8 105 6 110c-12 18 -22 37 -30 51c-12 18 16 10 29 7c0 40 1 82 6 110zM171 629c-10 0 -108 20 -111 39c4 2 16 45 16 50c-2 12 -3 27 7 34c26 3 96 -25 124 -36c5 -2 21 -8 10 -9
c-13 -11 -28 -78 -46 -78zM376 629c-10 0 -108 20 -111 39c4 2 16 45 16 50c-2 12 -3 27 7 34c26 3 96 -25 124 -36c5 -2 21 -8 10 -9c-13 -11 -28 -78 -46 -78z" />
    <glyph glyph-name="igrave" unicode="&#xec;" horiz-adv-x="218" 
d="M151 570c15 6 13 -8 11 -16c-14 -55 -13 -187 -16 -251c-1 -87 3 -177 2 -264c3 -13 2 -21 -3 -31c-7 -10 -31 -11 -43 -10c-30 15 -46 120 -45 145c3 49 3 102 2 151c-3 64 -12 177 -4 235c14 41 59 35 96 41zM19 764c15 20 50 60 73 57c21 -11 45 -44 60 -68
c11 -11 24 -26 36 -37c13 -11 22 -81 11 -89c-5 -4 -26 -19 -32 -18c-5 0 -7 1 -8 9c-12 18 -41 56 -55 69c-24 21 -54 47 -79 59c-12 6 -16 11 -6 18z" />
    <glyph glyph-name="iacute" unicode="&#xed;" horiz-adv-x="218" 
d="M151 570c15 6 13 -8 11 -16c-14 -55 -13 -187 -16 -251c-1 -87 3 -177 2 -264c3 -13 2 -21 -3 -31c-7 -10 -31 -11 -43 -10c-30 15 -46 120 -45 145c3 49 3 102 2 151c-3 64 -12 177 -4 235c14 41 59 35 96 41zM200 764c10 -7 6 -12 -6 -18c-25 -12 -55 -38 -79 -59
c-14 -13 -43 -51 -55 -69c-1 -8 -3 -9 -8 -9c-6 -1 -27 14 -32 18c-11 8 -2 78 11 89c12 11 25 26 36 37c15 24 39 57 60 68c23 3 58 -37 73 -57z" />
    <glyph glyph-name="icircumflex" unicode="&#xee;" horiz-adv-x="218" 
d="M151 570c15 6 13 -8 11 -16c-14 -55 -13 -187 -16 -251c-1 -87 3 -177 2 -264c3 -13 2 -21 -3 -31c-7 -10 -31 -11 -43 -10c-30 15 -46 120 -45 145c3 49 3 102 2 151c-3 64 -12 177 -4 235c14 41 59 35 96 41zM23 562c-18 10 -66 30 -49 58c2 1 89 77 100 86
c6 6 14 11 23 15c15 8 36 8 51 -4c40 -38 67 -70 101 -109c9 -4 12 -10 13 -17c0 -7 -15 -24 -20 -31c-30 -23 -85 40 -123 57c-31 -11 -62 -49 -96 -55z" />
    <glyph glyph-name="idieresis" unicode="&#xef;" horiz-adv-x="218" 
d="M151 570c15 6 13 -8 11 -16c-14 -55 -13 -187 -16 -251c-1 -87 3 -177 2 -264c3 -13 2 -21 -3 -31c-7 -10 -31 -11 -43 -10c-30 15 -46 120 -45 145c3 49 3 102 2 151c-3 64 -12 177 -4 235c14 41 59 35 96 41zM34 629c-10 0 -108 20 -111 39c4 2 16 45 16 50
c-2 12 -3 27 7 34c26 3 96 -25 124 -36c5 -2 21 -8 10 -9c-13 -11 -28 -78 -46 -78zM239 629c-10 0 -108 20 -111 39c4 2 16 45 16 50c-2 12 -3 27 7 34c26 3 96 -25 124 -36c5 -2 21 -8 10 -9c-13 -11 -28 -78 -46 -78z" />
    <glyph glyph-name="ntilde" unicode="&#xf1;" horiz-adv-x="504" 
d="M51 506c16 45 99 106 123 33c27 -77 69 -161 104 -236c22 -41 47 -86 72 -130v101c-4 68 -8 164 1 228c13 43 55 64 97 77c18 13 10 -33 10 -36c-13 -83 -17 -178 -22 -264c-2 -66 2 -157 10 -225c5 -12 4 -20 1 -30c-29 -90 -158 92 -170 114c-19 40 -41 80 -63 119
c-23 38 -52 86 -76 132c-3 -36 -5 -72 -8 -106c-4 -73 -1 -163 4 -238c4 -14 3 -23 -1 -35c-3 -11 -26 -22 -37 -25c-28 9 -56 130 -56 159c2 44 3 91 3 136c-2 67 -4 163 8 226zM80 633c-8 45 37 69 74 79c35 10 73 5 105 -17c24 -16 54 -30 82 -30c12 0 22 2 33 7
c5 5 3 6 15 10c5 2 26 -5 32 -5c11 -5 -16 -37 -25 -44c-16 -15 -46 -25 -68 -21c-39 6 -62 18 -96 38c-30 17 -85 0 -103 -22c-12 -15 -36 -5 -49 5z" />
    <glyph glyph-name="ograve" unicode="&#xf2;" horiz-adv-x="539" 
d="M258 514c17 -12 -18 -10 -35 -15c-6 -2 -11 -5 -17 -9c-52 -35 -74 -129 -79 -192c-2 -57 2 -115 29 -172c21 -41 50 -60 90 -56c147 13 208 208 160 344c-7 19 -14 35 -25 51c-12 17 -47 49 -63 57c-39 25 -50 31 -92 48c6 18 87 10 106 5c37 -12 62 -28 92 -57
c66 -66 97 -177 87 -255c-12 -94 -53 -185 -129 -237c-57 -39 -148 -64 -226 -17c-137 82 -147 305 -110 418c13 38 30 64 61 87c25 20 51 32 86 31c25 -2 47 -9 65 -31zM179 764c15 20 50 60 73 57c21 -11 45 -44 60 -68c11 -11 24 -26 36 -37c13 -11 22 -81 11 -89
c-5 -4 -26 -19 -32 -18c-5 0 -7 1 -8 9c-12 18 -41 56 -55 69c-24 21 -54 47 -79 59c-12 6 -16 11 -6 18z" />
    <glyph glyph-name="oacute" unicode="&#xf3;" horiz-adv-x="539" 
d="M258 514c17 -12 -18 -10 -35 -15c-6 -2 -11 -5 -17 -9c-52 -35 -74 -129 -79 -192c-2 -57 2 -115 29 -172c21 -41 50 -60 90 -56c147 13 208 208 160 344c-7 19 -14 35 -25 51c-12 17 -47 49 -63 57c-39 25 -50 31 -92 48c6 18 87 10 106 5c37 -12 62 -28 92 -57
c66 -66 97 -177 87 -255c-12 -94 -53 -185 -129 -237c-57 -39 -148 -64 -226 -17c-137 82 -147 305 -110 418c13 38 30 64 61 87c25 20 51 32 86 31c25 -2 47 -9 65 -31zM360 764c10 -7 6 -12 -6 -18c-25 -12 -55 -38 -79 -59c-14 -13 -43 -51 -55 -69c-1 -8 -3 -9 -8 -9
c-6 -1 -27 14 -32 18c-11 8 -2 78 11 89c12 11 25 26 36 37c15 24 39 57 60 68c23 3 58 -37 73 -57z" />
    <glyph glyph-name="ocircumflex" unicode="&#xf4;" horiz-adv-x="539" 
d="M258 514c17 -12 -18 -10 -35 -15c-6 -2 -11 -5 -17 -9c-52 -35 -74 -129 -79 -192c-2 -57 2 -115 29 -172c21 -41 50 -60 90 -56c147 13 208 208 160 344c-7 19 -14 35 -25 51c-12 17 -47 49 -63 57c-39 25 -50 31 -92 48c6 18 87 10 106 5c37 -12 62 -28 92 -57
c66 -66 97 -177 87 -255c-12 -94 -53 -185 -129 -237c-57 -39 -148 -64 -226 -17c-137 82 -147 305 -110 418c13 38 30 64 61 87c25 20 51 32 86 31c25 -2 47 -9 65 -31zM170 625c-18 10 -66 30 -49 58c2 1 89 77 100 86c6 6 14 11 23 15c15 8 36 8 51 -4
c40 -38 67 -70 101 -109c9 -4 12 -10 13 -17c0 -7 -15 -24 -20 -31c-30 -23 -85 40 -123 57c-31 -11 -62 -49 -96 -55z" />
    <glyph glyph-name="otilde" unicode="&#xf5;" horiz-adv-x="539" 
d="M258 514c17 -12 -18 -10 -35 -15c-6 -2 -11 -5 -17 -9c-52 -35 -74 -129 -79 -192c-2 -57 2 -115 29 -172c21 -41 50 -60 90 -56c147 13 208 208 160 344c-7 19 -14 35 -25 51c-12 17 -47 49 -63 57c-39 25 -50 31 -92 48c6 18 87 10 106 5c37 -12 62 -28 92 -57
c66 -66 97 -177 87 -255c-12 -94 -53 -185 -129 -237c-57 -39 -148 -64 -226 -17c-137 82 -147 305 -110 418c13 38 30 64 61 87c25 20 51 32 86 31c25 -2 47 -9 65 -31zM86 650c-8 45 37 69 74 79c35 10 73 5 105 -17c24 -16 54 -30 82 -30c12 0 22 2 33 7c5 5 3 6 15 10
c5 2 26 -5 32 -5c11 -5 -16 -37 -25 -44c-16 -15 -46 -25 -68 -21c-39 6 -62 18 -96 38c-30 17 -85 0 -103 -22c-12 -15 -36 -5 -49 5z" />
    <glyph glyph-name="odieresis" unicode="&#xf6;" horiz-adv-x="539" 
d="M258 514c17 -12 -18 -10 -35 -15c-6 -2 -11 -5 -17 -9c-52 -35 -74 -129 -79 -192c-2 -57 2 -115 29 -172c21 -41 50 -60 90 -56c147 13 208 208 160 344c-7 19 -14 35 -25 51c-12 17 -47 49 -63 57c-39 25 -50 31 -92 48c6 18 87 10 106 5c37 -12 62 -28 92 -57
c66 -66 97 -177 87 -255c-12 -94 -53 -185 -129 -237c-57 -39 -148 -64 -226 -17c-137 82 -147 305 -110 418c13 38 30 64 61 87c25 20 51 32 86 31c25 -2 47 -9 65 -31zM194 629c-10 0 -108 20 -111 39c4 2 16 45 16 50c-2 12 -3 27 7 34c26 3 96 -25 124 -36
c5 -2 21 -8 10 -9c-13 -11 -28 -78 -46 -78zM399 629c-10 0 -108 20 -111 39c4 2 16 45 16 50c-2 12 -3 27 7 34c26 3 96 -25 124 -36c5 -2 21 -8 10 -9c-13 -11 -28 -78 -46 -78z" />
    <glyph glyph-name="divide" unicode="&#xf7;" horiz-adv-x="481" 
d="M277 374c-11 0 -124 23 -128 44c5 3 18 52 19 58c-3 14 -4 32 8 39c30 4 110 -28 143 -41c5 -2 24 -9 11 -10c-15 -13 -32 -91 -53 -90zM319 166c5 -2 24 -9 11 -10c-15 -13 -32 -91 -53 -90c-11 0 -124 23 -128 44c5 3 18 51 19 58c-3 14 -4 32 8 39
c30 4 110 -28 143 -41z" />
    <glyph glyph-name="oslash" unicode="&#xf8;" horiz-adv-x="539" 
d="M521 622c29 -6 -13 -39 -15 -42c-20 -28 -42 -61 -64 -96c50 -65 72 -156 62 -224c-11 -92 -52 -183 -126 -234c-51 -34 -128 -57 -198 -29c-6 -17 -11 -35 -14 -52c-3 -16 -7 -28 -18 -40c-8 -11 -37 -18 -52 -13c-34 12 -6 105 14 154c-93 98 -97 278 -65 376
c14 37 30 62 60 86c25 20 51 33 86 30c25 -1 43 -11 64 -30c15 -13 -18 -10 -34 -14c-7 -2 -12 -5 -18 -10c-51 -34 -74 -127 -78 -189c-2 -53 0 -107 24 -159c54 122 112 253 190 361c-10 8 -19 15 -25 19c-39 22 -71 7 -91 47c-7 17 86 12 105 6c18 -7 34 -14 50 -22
c4 4 7 8 11 13c41 46 63 74 132 62zM401 410c-1 1 -1 3 -2 4c-33 -55 -63 -110 -91 -158c-30 -55 -69 -120 -99 -183c11 -3 22 -4 34 -3c145 13 206 206 158 340z" />
    <glyph glyph-name="ugrave" unicode="&#xf9;" horiz-adv-x="482" 
d="M165 568c21 8 2 -38 1 -40c-23 -70 -78 -343 2 -417c30 -27 74 -39 110 -40c65 -1 48 22 50 95c4 41 5 86 6 128c-4 63 -8 152 0 210c12 41 55 60 96 70c17 11 9 -30 8 -33c-12 -76 -13 -167 -19 -245c-3 -76 -1 -157 -3 -234c3 -15 1 -26 -5 -37c-5 -12 -29 -22 -41 -24
c-4 1 -7 5 -9 12c-43 -25 -107 -31 -160 -11c-27 10 -63 34 -86 55c-75 72 -84 214 -81 294c1 45 4 91 15 133c18 51 58 80 116 84zM150 764c15 20 50 60 73 57c21 -11 45 -44 60 -68c11 -11 24 -26 36 -37c13 -11 22 -81 11 -89c-5 -4 -26 -19 -32 -18c-5 0 -7 1 -8 9
c-12 18 -41 56 -55 69c-24 21 -54 47 -79 59c-12 6 -16 11 -6 18z" />
    <glyph glyph-name="uacute" unicode="&#xfa;" horiz-adv-x="482" 
d="M165 568c21 8 2 -38 1 -40c-23 -70 -78 -343 2 -417c30 -27 74 -39 110 -40c65 -1 48 22 50 95c4 41 5 86 6 128c-4 63 -8 152 0 210c12 41 55 60 96 70c17 11 9 -30 8 -33c-12 -76 -13 -167 -19 -245c-3 -76 -1 -157 -3 -234c3 -15 1 -26 -5 -37c-5 -12 -29 -22 -41 -24
c-4 1 -7 5 -9 12c-43 -25 -107 -31 -160 -11c-27 10 -63 34 -86 55c-75 72 -84 214 -81 294c1 45 4 91 15 133c18 51 58 80 116 84zM331 764c10 -7 6 -12 -6 -18c-25 -12 -55 -38 -79 -59c-14 -13 -43 -51 -55 -69c-1 -8 -3 -9 -8 -9c-6 -1 -27 14 -32 18c-11 8 -2 78 11 89
c12 11 25 26 36 37c15 24 39 57 60 68c23 3 58 -37 73 -57z" />
    <glyph glyph-name="ucircumflex" unicode="&#xfb;" horiz-adv-x="482" 
d="M165 568c21 8 2 -38 1 -40c-23 -70 -78 -343 2 -417c30 -27 74 -39 110 -40c65 -1 48 22 50 95c4 41 5 86 6 128c-4 63 -8 152 0 210c12 41 55 60 96 70c17 11 9 -30 8 -33c-12 -76 -13 -167 -19 -245c-3 -76 -1 -157 -3 -234c3 -15 1 -26 -5 -37c-5 -12 -29 -22 -41 -24
c-4 1 -7 5 -9 12c-43 -25 -107 -31 -160 -11c-27 10 -63 34 -86 55c-75 72 -84 214 -81 294c1 45 4 91 15 133c18 51 58 80 116 84zM154 562c-18 10 -66 30 -49 58c2 1 89 77 100 86c6 6 14 11 23 15c15 8 36 8 51 -4c40 -38 67 -70 101 -109c9 -4 12 -10 13 -17
c0 -7 -15 -24 -20 -31c-30 -23 -85 40 -123 57c-31 -11 -62 -49 -96 -55z" />
    <glyph glyph-name="udieresis" unicode="&#xfc;" horiz-adv-x="482" 
d="M165 568c21 8 2 -38 1 -40c-23 -70 -78 -343 2 -417c30 -27 74 -39 110 -40c65 -1 48 22 50 95c4 41 5 86 6 128c-4 63 -8 152 0 210c12 41 55 60 96 70c17 11 9 -30 8 -33c-12 -76 -13 -167 -19 -245c-3 -76 -1 -157 -3 -234c3 -15 1 -26 -5 -37c-5 -12 -29 -22 -41 -24
c-4 1 -7 5 -9 12c-43 -25 -107 -31 -160 -11c-27 10 -63 34 -86 55c-75 72 -84 214 -81 294c1 45 4 91 15 133c18 51 58 80 116 84zM166 629c-10 0 -108 20 -111 39c4 2 16 45 16 50c-2 12 -3 27 7 34c26 3 96 -25 124 -36c5 -2 21 -8 10 -9c-13 -11 -28 -78 -46 -78z
M371 629c-10 0 -108 20 -111 39c4 2 16 45 16 50c-2 12 -3 27 7 34c26 3 96 -25 124 -36c5 -2 21 -8 10 -9c-13 -11 -28 -78 -46 -78z" />
    <glyph glyph-name="yacute" unicode="&#xfd;" horiz-adv-x="474" 
d="M74 566c8 14 16 -9 18 -16c17 -48 53 -100 82 -144c21 -28 54 -64 83 -95c13 73 33 167 61 225c26 35 74 44 120 22c18 -6 4 -17 -2 -24c-41 -53 -76 -180 -95 -250c-19 -76 -35 -173 -44 -253c1 -12 0 -20 -6 -29c-5 -8 -29 -12 -41 -12c-31 12 -33 128 -28 154
c7 31 14 62 20 94c-26 14 -56 35 -65 46c-17 22 -37 46 -55 69c-32 33 -72 80 -92 120c-9 37 20 73 44 93zM327 764c10 -7 6 -12 -6 -18c-25 -12 -55 -38 -79 -59c-14 -13 -43 -51 -55 -69c-1 -8 -3 -9 -8 -9c-6 -1 -27 14 -32 18c-11 8 -2 78 11 89c12 11 25 26 36 37
c15 24 39 57 60 68c23 3 58 -37 73 -57z" />
    <glyph glyph-name="thorn" unicode="&#xfe;" horiz-adv-x="498" 
d="M191 490v0c19 12 9 -34 8 -36c-6 -36 -12 -72 -17 -110c2 1 3 1 4 1c56 14 100 33 140 69c41 38 43 69 -26 83c-55 12 -158 3 -203 -13c-34 7 -65 57 -64 76c13 5 43 9 62 13c84 14 240 28 320 -44c30 -28 47 -67 43 -102c-7 -41 -52 -95 -86 -110c14 -4 32 -14 45 -23
c51 -40 54 -104 44 -154c-17 -87 -92 -130 -177 -148c-10 -2 -21 -4 -31 -6c-36 -8 -74 -8 -114 -1c-30 5 -78 27 -100 53c0 3 29 8 65 12c-15 35 -30 88 -29 106c4 30 6 65 7 96c-3 51 -4 124 5 170c16 39 65 57 104 68zM171 59c39 5 74 9 81 11c46 16 81 37 106 75
c12 17 18 44 16 66c0 15 -2 20 -16 25c-40 13 -94 3 -132 -2c-7 0 -13 0 -21 2c-13 4 -24 10 -33 18l-1 -7c-5 -53 -3 -121 -2 -176c1 -4 2 -8 2 -12z" />
    <glyph glyph-name="ydieresis" unicode="&#xff;" horiz-adv-x="474" 
d="M74 566c8 14 16 -9 18 -16c17 -48 53 -100 82 -144c21 -28 54 -64 83 -95c13 73 33 167 61 225c26 35 74 44 120 22c18 -6 4 -17 -2 -24c-41 -53 -76 -180 -95 -250c-19 -76 -35 -173 -44 -253c1 -12 0 -20 -6 -29c-5 -8 -29 -12 -41 -12c-31 12 -33 128 -28 154
c7 31 14 62 20 94c-26 14 -56 35 -65 46c-17 22 -37 46 -55 69c-32 33 -72 80 -92 120c-9 37 20 73 44 93zM162 629c-10 0 -108 20 -111 39c4 2 16 45 16 50c-2 12 -3 27 7 34c26 3 96 -25 124 -36c5 -2 21 -8 10 -9c-13 -11 -28 -78 -46 -78zM367 629
c-10 0 -108 20 -111 39c4 2 16 45 16 50c-2 12 -3 27 7 34c26 3 96 -25 124 -36c5 -2 21 -8 10 -9c-13 -11 -28 -78 -46 -78z" />
    <glyph glyph-name="agrave" unicode="&#xe0;" horiz-adv-x="515" 
d="M321 590v0c11 12 31 -38 35 -50c29 -94 46 -190 60 -286c4 -20 9 -46 14 -72c4 -1 7 -2 10 -3c15 -5 36 -32 41 -41c4 -8 -28 -22 -35 -25c8 -31 16 -61 26 -85c6 -8 8 -15 7 -24c-1 -6 -21 -23 -27 -28c-30 -8 -75 71 -90 109h-1c-27 1 -56 1 -83 -2
c-28 -5 -116 -20 -142 -13c-5 -8 -9 -16 -14 -23c-4 -17 -12 -27 -25 -37c-12 -10 -43 -12 -60 -8c-7 9 8 71 22 119c-13 13 -25 26 -36 38c-22 16 29 13 32 13c7 -1 14 -1 21 -1c13 35 37 63 50 102c15 44 63 210 79 243c32 59 67 47 116 74zM184 170h58c32 0 68 4 103 6
c-4 18 -8 38 -12 55c-15 59 -35 127 -48 189c-20 -57 -43 -117 -67 -170c-8 -18 -15 -36 -23 -55c-4 -8 -8 -17 -11 -25zM167 764c15 20 50 60 73 57c21 -11 45 -44 60 -68c11 -11 24 -26 36 -37c13 -11 22 -81 11 -89c-5 -4 -26 -19 -32 -18c-5 0 -7 1 -8 9
c-12 18 -41 56 -55 69c-24 21 -54 47 -79 59c-12 6 -16 11 -6 18z" />
    <glyph glyph-name="aacute" unicode="&#xe1;" horiz-adv-x="515" 
d="M321 590v0c11 12 31 -38 35 -50c29 -94 46 -190 60 -286c4 -20 9 -46 14 -72c4 -1 7 -2 10 -3c15 -5 36 -32 41 -41c4 -8 -28 -22 -35 -25c8 -31 16 -61 26 -85c6 -8 8 -15 7 -24c-1 -6 -21 -23 -27 -28c-30 -8 -75 71 -90 109h-1c-27 1 -56 1 -83 -2
c-28 -5 -116 -20 -142 -13c-5 -8 -9 -16 -14 -23c-4 -17 -12 -27 -25 -37c-12 -10 -43 -12 -60 -8c-7 9 8 71 22 119c-13 13 -25 26 -36 38c-22 16 29 13 32 13c7 -1 14 -1 21 -1c13 35 37 63 50 102c15 44 63 210 79 243c32 59 67 47 116 74zM184 170h58c32 0 68 4 103 6
c-4 18 -8 38 -12 55c-15 59 -35 127 -48 189c-20 -57 -43 -117 -67 -170c-8 -18 -15 -36 -23 -55c-4 -8 -8 -17 -11 -25zM402 772c10 -7 6 -12 -6 -18c-25 -12 -55 -38 -79 -59c-14 -13 -43 -51 -55 -69c-1 -8 -3 -9 -8 -9c-6 -1 -27 14 -32 18c-11 8 -2 78 11 89
c12 11 25 26 36 37c15 24 39 57 60 68c23 3 58 -37 73 -57z" />
    <glyph glyph-name="acircumflex" unicode="&#xe2;" horiz-adv-x="515" 
d="M321 590v0c11 12 31 -38 35 -50c29 -94 46 -190 60 -286c4 -20 9 -46 14 -72c4 -1 7 -2 10 -3c15 -5 36 -32 41 -41c4 -8 -28 -22 -35 -25c8 -31 16 -61 26 -85c6 -8 8 -15 7 -24c-1 -6 -21 -23 -27 -28c-30 -8 -75 71 -90 109h-1c-27 1 -56 1 -83 -2
c-28 -5 -116 -20 -142 -13c-5 -8 -9 -16 -14 -23c-4 -17 -12 -27 -25 -37c-12 -10 -43 -12 -60 -8c-7 9 8 71 22 119c-13 13 -25 26 -36 38c-22 16 29 13 32 13c7 -1 14 -1 21 -1c13 35 37 63 50 102c15 44 63 210 79 243c32 59 67 47 116 74zM184 170h58c32 0 68 4 103 6
c-4 18 -8 38 -12 55c-15 59 -35 127 -48 189c-20 -57 -43 -117 -67 -170c-8 -18 -15 -36 -23 -55c-4 -8 -8 -17 -11 -25zM197 603c-18 10 -66 30 -49 58c2 1 89 77 100 86c6 6 14 11 23 15c15 8 36 8 51 -4c40 -38 67 -70 101 -109c9 -4 12 -10 13 -17c0 -7 -15 -24 -20 -31
c-30 -23 -85 40 -123 57c-31 -11 -62 -49 -96 -55z" />
    <glyph glyph-name="atilde" unicode="&#xe3;" horiz-adv-x="515" 
d="M321 590v0c11 12 31 -38 35 -50c29 -94 46 -190 60 -286c4 -20 9 -46 14 -72c4 -1 7 -2 10 -3c15 -5 36 -32 41 -41c4 -8 -28 -22 -35 -25c8 -31 16 -61 26 -85c6 -8 8 -15 7 -24c-1 -6 -21 -23 -27 -28c-30 -8 -75 71 -90 109h-1c-27 1 -56 1 -83 -2
c-28 -5 -116 -20 -142 -13c-5 -8 -9 -16 -14 -23c-4 -17 -12 -27 -25 -37c-12 -10 -43 -12 -60 -8c-7 9 8 71 22 119c-13 13 -25 26 -36 38c-22 16 29 13 32 13c7 -1 14 -1 21 -1c13 35 37 63 50 102c15 44 63 210 79 243c32 59 67 47 116 74zM184 170h58c32 0 68 4 103 6
c-4 18 -8 38 -12 55c-15 59 -35 127 -48 189c-20 -57 -43 -117 -67 -170c-8 -18 -15 -36 -23 -55c-4 -8 -8 -17 -11 -25zM122 645c-8 45 37 69 74 79c35 10 73 5 105 -17c24 -16 54 -30 82 -30c12 0 22 2 33 7c5 5 3 6 15 10c5 2 26 -5 32 -5c11 -5 -16 -37 -25 -44
c-16 -15 -46 -25 -68 -21c-39 6 -62 18 -96 38c-30 17 -85 0 -103 -22c-12 -15 -36 -5 -49 5z" />
    <glyph glyph-name="adieresis" unicode="&#xe4;" horiz-adv-x="515" 
d="M321 590v0c11 12 31 -38 35 -50c29 -94 46 -190 60 -286c4 -20 9 -46 14 -72c4 -1 7 -2 10 -3c15 -5 36 -32 41 -41c4 -8 -28 -22 -35 -25c8 -31 16 -61 26 -85c6 -8 8 -15 7 -24c-1 -6 -21 -23 -27 -28c-30 -8 -75 71 -90 109h-1c-27 1 -56 1 -83 -2
c-28 -5 -116 -20 -142 -13c-5 -8 -9 -16 -14 -23c-4 -17 -12 -27 -25 -37c-12 -10 -43 -12 -60 -8c-7 9 8 71 22 119c-13 13 -25 26 -36 38c-22 16 29 13 32 13c7 -1 14 -1 21 -1c13 35 37 63 50 102c15 44 63 210 79 243c32 59 67 47 116 74zM184 170h58c32 0 68 4 103 6
c-4 18 -8 38 -12 55c-15 59 -35 127 -48 189c-20 -57 -43 -117 -67 -170c-8 -18 -15 -36 -23 -55c-4 -8 -8 -17 -11 -25zM192 634c-10 0 -104 19 -107 37c4 2 15 44 15 49c-2 11 -3 25 7 32c25 3 92 -24 119 -34c5 -2 20 -8 10 -9c-13 -11 -27 -75 -44 -75zM389 634
c-10 0 -104 19 -107 37c4 2 15 44 15 49c-2 11 -2 25 7 32c25 3 93 -24 119 -34c5 -2 21 -8 10 -9c-12 -11 -27 -75 -44 -75z" />
    <glyph glyph-name="aring" unicode="&#xe5;" horiz-adv-x="515" 
d="M321 590v0c11 12 31 -38 35 -50c29 -94 46 -190 60 -286c4 -20 9 -46 14 -72c4 -1 7 -2 10 -3c15 -5 36 -32 41 -41c4 -8 -28 -22 -35 -25c8 -31 16 -61 26 -85c6 -8 8 -15 7 -24c-1 -6 -21 -23 -27 -28c-30 -8 -75 71 -90 109h-1c-27 1 -56 1 -83 -2
c-28 -5 -116 -20 -142 -13c-5 -8 -9 -16 -14 -23c-4 -17 -12 -27 -25 -37c-12 -10 -43 -12 -60 -8c-7 9 8 71 22 119c-13 13 -25 26 -36 38c-22 16 29 13 32 13c7 -1 14 -1 21 -1c13 35 37 63 50 102c15 44 63 210 79 243c32 59 67 47 116 74zM184 170h58c32 0 68 4 103 6
c-4 18 -8 38 -12 55c-15 59 -35 127 -48 189c-20 -57 -43 -117 -67 -170c-8 -18 -15 -36 -23 -55c-4 -8 -8 -17 -11 -25zM257 712c56 0 101 -46 101 -100c0 -56 -45 -101 -101 -101s-100 45 -100 101c0 54 44 100 100 100zM257 559c29 0 53 24 53 53s-24 52 -53 52
s-52 -23 -52 -52s23 -53 52 -53z" />
    <glyph glyph-name="ae" unicode="&#xe6;" horiz-adv-x="818" 
d="M392 505c50 57 92 56 165 53c15 0 32 -1 48 -3c33 -1 78 3 113 3c6 4 12 3 19 0c7 -5 16 -28 18 -36c-2 -16 -60 -44 -79 -44c-19 2 -41 2 -60 1c-26 -3 -73 -9 -97 -5c-1 0 -2 1 -4 2l3 -93c24 -3 48 -5 71 -7c34 -2 84 2 120 3c8 3 15 3 22 -1c9 -4 19 -26 22 -35
c-3 -16 -69 -45 -88 -45c-21 2 -45 2 -66 2c-22 -2 -53 -5 -80 -4v-17c2 -68 7 -140 10 -209c22 -1 43 0 64 -1c30 2 70 10 102 13c8 4 14 2 21 -1c8 -4 19 -26 21 -35c-2 -12 -60 -46 -75 -48c-16 2 -35 -1 -52 -3c-67 -17 -125 -17 -136 24c-8 28 -15 63 -27 115v34
c-18 -15 -43 -28 -63 -28c-24 1 -51 1 -76 0c-19 -1 -44 -3 -68 -3c-18 -24 -36 -47 -55 -71c-14 -16 -27 -32 -41 -47c-11 -15 -23 -27 -40 -35c-14 -7 -39 -3 -51 8c-3 10 66 112 75 123c6 12 16 28 25 38c1 2 3 4 4 6c-17 19 -29 49 -36 71c-10 14 17 9 23 7
c21 -5 43 -9 67 -12c10 14 20 27 30 41c4 7 9 15 14 23c45 70 91 151 137 216zM297 217c36 -3 92 1 128 7c7 5 12 4 19 1c1 0 2 -1 2 -1c0 11 -1 21 -1 32c-4 36 -10 82 -13 125c-1 1 -2 3 -2 5c-4 5 -2 8 0 9v9c-35 -54 -72 -106 -112 -159c-1 -1 -2 -2 -2 -3
c-6 -8 -12 -17 -19 -25z" />
    <glyph glyph-name="Egrave" unicode="&#xc8;" horiz-adv-x="616" 
d="M116 588c-33 20 -63 82 -78 114c-11 17 -1 17 13 13c46 -13 128 -12 176 -14c72 0 159 9 232 13c44 9 78 -6 112 -48c-2 -22 -149 -67 -180 -68c-60 0 -88 2 -146 -6c-7 -52 -13 -106 -18 -159c16 -1 33 -3 49 -5c43 -2 106 4 150 6c9 5 18 3 28 -2c12 -6 32 -37 38 -49
c1 -21 -72 -63 -98 -63c-107 6 -102 -6 -177 -4c-3 -56 -2 -124 3 -170c5 -10 5 -16 0 -24c-2 -2 -10 -6 -19 -9c39 -2 77 -3 108 -4c59 -1 147 7 204 17c7 6 14 6 24 1c9 -4 30 -35 37 -44c12 -35 -63 -74 -95 -76c-41 1 -84 -2 -125 -4c-55 -6 -151 -15 -207 -5
c-47 17 -78 77 -96 119c-12 20 7 15 20 11c23 -5 51 -9 80 -11c-28 27 -48 96 -48 123c1 16 10 131 7 138c-15 22 -28 46 -37 63c-15 23 20 13 36 9c0 50 1 103 7 138zM217 914c15 20 50 60 73 57c21 -11 45 -44 60 -68c11 -11 24 -26 36 -37c13 -11 22 -81 11 -89
c-5 -4 -26 -19 -32 -18c-5 0 -7 1 -8 9c-12 18 -41 56 -55 69c-24 21 -54 47 -79 59c-12 6 -16 11 -6 18z" />
    <glyph glyph-name="Eacute" unicode="&#xc9;" horiz-adv-x="616" 
d="M116 588c-33 20 -63 82 -78 114c-11 17 -1 17 13 13c46 -13 128 -12 176 -14c72 0 159 9 232 13c44 9 78 -6 112 -48c-2 -22 -149 -67 -180 -68c-60 0 -88 2 -146 -6c-7 -52 -13 -106 -18 -159c16 -1 33 -3 49 -5c43 -2 106 4 150 6c9 5 18 3 28 -2c12 -6 32 -37 38 -49
c1 -21 -72 -63 -98 -63c-107 6 -102 -6 -177 -4c-3 -56 -2 -124 3 -170c5 -10 5 -16 0 -24c-2 -2 -10 -6 -19 -9c39 -2 77 -3 108 -4c59 -1 147 7 204 17c7 6 14 6 24 1c9 -4 30 -35 37 -44c12 -35 -63 -74 -95 -76c-41 1 -84 -2 -125 -4c-55 -6 -151 -15 -207 -5
c-47 17 -78 77 -96 119c-12 20 7 15 20 11c23 -5 51 -9 80 -11c-28 27 -48 96 -48 123c1 16 10 131 7 138c-15 22 -28 46 -37 63c-15 23 20 13 36 9c0 50 1 103 7 138zM398 914c10 -7 6 -12 -6 -18c-25 -12 -55 -38 -79 -59c-14 -13 -43 -51 -55 -69c-1 -8 -3 -9 -8 -9
c-6 -1 -27 14 -32 18c-11 8 -2 78 11 89c12 11 25 26 36 37c15 24 39 57 60 68c23 3 58 -37 73 -57z" />
    <glyph glyph-name="Ecircumflex" unicode="&#xca;" horiz-adv-x="616" 
d="M116 588c-33 20 -63 82 -78 114c-11 17 -1 17 13 13c46 -13 128 -12 176 -14c72 0 159 9 232 13c44 9 78 -6 112 -48c-2 -22 -149 -67 -180 -68c-60 0 -88 2 -146 -6c-7 -52 -13 -106 -18 -159c16 -1 33 -3 49 -5c43 -2 106 4 150 6c9 5 18 3 28 -2c12 -6 32 -37 38 -49
c1 -21 -72 -63 -98 -63c-107 6 -102 -6 -177 -4c-3 -56 -2 -124 3 -170c5 -10 5 -16 0 -24c-2 -2 -10 -6 -19 -9c39 -2 77 -3 108 -4c59 -1 147 7 204 17c7 6 14 6 24 1c9 -4 30 -35 37 -44c12 -35 -63 -74 -95 -76c-41 1 -84 -2 -125 -4c-55 -6 -151 -15 -207 -5
c-47 17 -78 77 -96 119c-12 20 7 15 20 11c23 -5 51 -9 80 -11c-28 27 -48 96 -48 123c1 16 10 131 7 138c-15 22 -28 46 -37 63c-15 23 20 13 36 9c0 50 1 103 7 138zM227 755c-18 10 -66 30 -49 58c2 1 89 77 100 86c6 6 14 11 23 15c15 8 36 8 51 -4
c40 -38 67 -70 101 -109c9 -4 12 -10 13 -17c0 -7 -15 -24 -20 -31c-30 -23 -85 40 -123 57c-31 -11 -62 -49 -96 -55z" />
    <glyph glyph-name="Edieresis" unicode="&#xcb;" horiz-adv-x="616" 
d="M116 588c-33 20 -63 82 -78 114c-11 17 -1 17 13 13c46 -13 128 -12 176 -14c72 0 159 9 232 13c44 9 78 -6 112 -48c-2 -22 -149 -67 -180 -68c-60 0 -88 2 -146 -6c-7 -52 -13 -106 -18 -159c16 -1 33 -3 49 -5c43 -2 106 4 150 6c9 5 18 3 28 -2c12 -6 32 -37 38 -49
c1 -21 -72 -63 -98 -63c-107 6 -102 -6 -177 -4c-3 -56 -2 -124 3 -170c5 -10 5 -16 0 -24c-2 -2 -10 -6 -19 -9c39 -2 77 -3 108 -4c59 -1 147 7 204 17c7 6 14 6 24 1c9 -4 30 -35 37 -44c12 -35 -63 -74 -95 -76c-41 1 -84 -2 -125 -4c-55 -6 -151 -15 -207 -5
c-47 17 -78 77 -96 119c-12 20 7 15 20 11c23 -5 51 -9 80 -11c-28 27 -48 96 -48 123c1 16 10 131 7 138c-15 22 -28 46 -37 63c-15 23 20 13 36 9c0 50 1 103 7 138zM232 779c-10 0 -108 20 -111 39c4 2 16 45 16 50c-2 12 -3 27 7 34c26 3 96 -25 124 -36
c5 -2 21 -8 10 -9c-13 -11 -28 -78 -46 -78zM437 779c-10 0 -108 20 -111 39c4 2 16 45 16 50c-2 12 -3 27 7 34c26 3 96 -25 124 -36c5 -2 21 -8 10 -9c-13 -11 -28 -78 -46 -78z" />
    <glyph glyph-name="Igrave" unicode="&#xcc;" horiz-adv-x="273" 
d="M189 713c19 7 16 -11 13 -21c-17 -68 -16 -233 -19 -313c-2 -109 3 -221 2 -330c4 -16 3 -27 -4 -39c-8 -12 -38 -14 -53 -12c-38 18 -58 149 -57 181c4 61 4 127 3 189c-4 80 -15 221 -5 293c17 51 73 44 120 52zM46 914c15 20 50 60 73 57c21 -11 45 -44 60 -68
c11 -11 24 -26 36 -37c13 -11 22 -81 11 -89c-5 -4 -26 -19 -32 -18c-5 0 -7 1 -8 9c-12 18 -41 56 -55 69c-24 21 -54 47 -79 59c-12 6 -16 11 -6 18z" />
    <glyph glyph-name="Iacute" unicode="&#xcd;" horiz-adv-x="273" 
d="M189 713c19 7 16 -11 13 -21c-17 -68 -16 -233 -19 -313c-2 -109 3 -221 2 -330c4 -16 3 -27 -4 -39c-8 -12 -38 -14 -53 -12c-38 18 -58 149 -57 181c4 61 4 127 3 189c-4 80 -15 221 -5 293c17 51 73 44 120 52zM227 914c10 -7 6 -12 -6 -18c-25 -12 -55 -38 -79 -59
c-14 -13 -43 -51 -55 -69c-1 -8 -3 -9 -8 -9c-6 -1 -27 14 -32 18c-11 8 -2 78 11 89c12 11 25 26 36 37c15 24 39 57 60 68c23 3 58 -37 73 -57z" />
    <glyph glyph-name="Icircumflex" unicode="&#xce;" horiz-adv-x="273" 
d="M189 713c19 7 16 -11 13 -21c-17 -68 -16 -233 -19 -313c-2 -109 3 -221 2 -330c4 -16 3 -27 -4 -39c-8 -12 -38 -14 -53 -12c-38 18 -58 149 -57 181c4 61 4 127 3 189c-4 80 -15 221 -5 293c17 51 73 44 120 52zM50 712c-18 10 -66 30 -49 58c2 1 89 77 100 86
c6 6 14 11 23 15c15 8 36 8 51 -4c40 -38 67 -70 101 -109c9 -4 12 -10 13 -17c0 -7 -15 -24 -20 -31c-30 -23 -85 40 -123 57c-31 -11 -62 -49 -96 -55z" />
    <glyph glyph-name="Idieresis" unicode="&#xcf;" horiz-adv-x="273" 
d="M189 713c19 7 16 -11 13 -21c-17 -68 -16 -233 -19 -313c-2 -109 3 -221 2 -330c4 -16 3 -27 -4 -39c-8 -12 -38 -14 -53 -12c-38 18 -58 149 -57 181c4 61 4 127 3 189c-4 80 -15 221 -5 293c17 51 73 44 120 52zM61 779c-10 0 -108 20 -111 39c4 2 16 45 16 50
c-2 12 -3 27 7 34c26 3 96 -25 124 -36c5 -2 21 -8 10 -9c-13 -11 -28 -78 -46 -78zM266 779c-10 0 -108 20 -111 39c4 2 16 45 16 50c-2 12 -3 27 7 34c26 3 96 -25 124 -36c5 -2 21 -8 10 -9c-13 -11 -28 -78 -46 -78z" />
    <glyph glyph-name="Ntilde" unicode="&#xd1;" horiz-adv-x="630" 
d="M64 632c20 57 123 133 154 42c33 -96 86 -201 130 -295c27 -52 58 -108 90 -163c0 42 0 85 -1 127c-4 85 -9 204 2 284c16 54 69 81 121 97c22 16 12 -42 12 -45c-16 -104 -21 -223 -27 -330c-3 -83 2 -197 12 -282c7 -14 6 -25 2 -37c-36 -113 -198 115 -213 143
c-23 49 -51 100 -78 148c-29 48 -66 108 -95 165c-4 -45 -7 -90 -11 -132c-4 -91 -1 -204 5 -298c5 -17 4 -29 -1 -43c-4 -14 -32 -28 -46 -32c-35 11 -70 163 -70 199c3 55 4 114 4 170c-3 84 -5 204 10 282zM143 783c-8 45 37 69 74 79c35 10 73 5 105 -17
c24 -16 54 -30 82 -30c12 0 22 2 33 7c5 5 3 6 15 10c5 2 26 -5 32 -5c11 -5 -16 -37 -25 -44c-16 -15 -46 -25 -68 -21c-39 6 -62 18 -96 38c-30 17 -85 0 -103 -22c-12 -15 -36 -5 -49 5z" />
    <glyph glyph-name="Ograve" unicode="&#xd2;" horiz-adv-x="674" 
d="M322 643c22 -16 -22 -13 -43 -19c-8 -3 -14 -6 -21 -11c-65 -44 -93 -162 -99 -241c-3 -71 2 -143 36 -214c26 -52 62 -75 113 -70c183 16 259 260 200 430c-9 23 -18 43 -32 63c-15 21 -58 61 -79 71c-48 32 -62 39 -114 61c7 22 108 12 132 6c46 -15 78 -35 115 -71
c82 -83 121 -222 109 -319c-15 -118 -66 -231 -161 -296c-72 -49 -186 -81 -283 -22c-171 103 -184 381 -137 523c16 47 37 80 76 109c31 25 63 40 107 38c31 -2 59 -11 81 -38zM246 914c15 20 50 60 73 57c21 -11 45 -44 60 -68c11 -11 24 -26 36 -37c13 -11 22 -81 11 -89
c-5 -4 -26 -19 -32 -18c-5 0 -7 1 -8 9c-12 18 -41 56 -55 69c-24 21 -54 47 -79 59c-12 6 -16 11 -6 18z" />
    <glyph glyph-name="Oacute" unicode="&#xd3;" horiz-adv-x="674" 
d="M322 643c22 -16 -22 -13 -43 -19c-8 -3 -14 -6 -21 -11c-65 -44 -93 -162 -99 -241c-3 -71 2 -143 36 -214c26 -52 62 -75 113 -70c183 16 259 260 200 430c-9 23 -18 43 -32 63c-15 21 -58 61 -79 71c-48 32 -62 39 -114 61c7 22 108 12 132 6c46 -15 78 -35 115 -71
c82 -83 121 -222 109 -319c-15 -118 -66 -231 -161 -296c-72 -49 -186 -81 -283 -22c-171 103 -184 381 -137 523c16 47 37 80 76 109c31 25 63 40 107 38c31 -2 59 -11 81 -38zM427 914c10 -7 6 -12 -6 -18c-25 -12 -55 -38 -79 -59c-14 -13 -43 -51 -55 -69
c-1 -8 -3 -9 -8 -9c-6 -1 -27 14 -32 18c-11 8 -2 78 11 89c12 11 25 26 36 37c15 24 39 57 60 68c23 3 58 -37 73 -57z" />
    <glyph glyph-name="Ocircumflex" unicode="&#xd4;" horiz-adv-x="674" 
d="M322 643c22 -16 -22 -13 -43 -19c-8 -3 -14 -6 -21 -11c-65 -44 -93 -162 -99 -241c-3 -71 2 -143 36 -214c26 -52 62 -75 113 -70c183 16 259 260 200 430c-9 23 -18 43 -32 63c-15 21 -58 61 -79 71c-48 32 -62 39 -114 61c7 22 108 12 132 6c46 -15 78 -35 115 -71
c82 -83 121 -222 109 -319c-15 -118 -66 -231 -161 -296c-72 -49 -186 -81 -283 -22c-171 103 -184 381 -137 523c16 47 37 80 76 109c31 25 63 40 107 38c31 -2 59 -11 81 -38zM229 779c-18 10 -66 30 -49 58c2 1 89 77 100 86c6 6 14 11 23 15c15 8 36 8 51 -4
c40 -38 67 -70 101 -109c9 -4 12 -10 13 -17c0 -7 -15 -24 -20 -31c-30 -23 -85 40 -123 57c-31 -11 -62 -49 -96 -55z" />
    <glyph glyph-name="Otilde" unicode="&#xd5;" horiz-adv-x="674" 
d="M322 643c22 -16 -22 -13 -43 -19c-8 -3 -14 -6 -21 -11c-65 -44 -93 -162 -99 -241c-3 -71 2 -143 36 -214c26 -52 62 -75 113 -70c183 16 259 260 200 430c-9 23 -18 43 -32 63c-15 21 -58 61 -79 71c-48 32 -62 39 -114 61c7 22 108 12 132 6c46 -15 78 -35 115 -71
c82 -83 121 -222 109 -319c-15 -118 -66 -231 -161 -296c-72 -49 -186 -81 -283 -22c-171 103 -184 381 -137 523c16 47 37 80 76 109c31 25 63 40 107 38c31 -2 59 -11 81 -38zM165 794c-8 45 37 69 74 79c35 10 73 5 105 -17c24 -16 54 -30 82 -30c12 0 22 2 33 7
c5 5 3 6 15 10c5 2 26 -5 32 -5c11 -5 -16 -37 -25 -44c-16 -15 -46 -25 -68 -21c-39 6 -62 18 -96 38c-30 17 -85 0 -103 -22c-12 -15 -36 -5 -49 5z" />
    <glyph glyph-name="Odieresis" unicode="&#xd6;" horiz-adv-x="674" 
d="M322 643c22 -16 -22 -13 -43 -19c-8 -3 -14 -6 -21 -11c-65 -44 -93 -162 -99 -241c-3 -71 2 -143 36 -214c26 -52 62 -75 113 -70c183 16 259 260 200 430c-9 23 -18 43 -32 63c-15 21 -58 61 -79 71c-48 32 -62 39 -114 61c7 22 108 12 132 6c46 -15 78 -35 115 -71
c82 -83 121 -222 109 -319c-15 -118 -66 -231 -161 -296c-72 -49 -186 -81 -283 -22c-171 103 -184 381 -137 523c16 47 37 80 76 109c31 25 63 40 107 38c31 -2 59 -11 81 -38zM261 779c-10 0 -108 20 -111 39c4 2 16 45 16 50c-2 12 -3 27 7 34c26 3 96 -25 124 -36
c5 -2 21 -8 10 -9c-13 -11 -28 -78 -46 -78zM466 779c-10 0 -108 20 -111 39c4 2 16 45 16 50c-2 12 -3 27 7 34c26 3 96 -25 124 -36c5 -2 21 -8 10 -9c-13 -11 -28 -78 -46 -78z" />
    <glyph glyph-name="Ugrave" unicode="&#xd9;" horiz-adv-x="603" 
d="M206 710c27 10 3 -48 2 -50c-29 -88 -98 -429 2 -521c38 -34 93 -49 138 -50c81 -2 59 27 62 119c5 51 6 107 7 159c-4 79 -10 190 0 263c16 51 69 75 120 88c22 13 12 -38 11 -42c-15 -95 -17 -208 -24 -306c-4 -95 -2 -196 -4 -293c4 -18 1 -32 -6 -46
c-6 -15 -36 -27 -52 -30c-4 2 -8 7 -11 15c-53 -31 -133 -39 -200 -14c-34 13 -79 43 -107 69c-94 90 -105 268 -102 368c2 56 6 114 19 166c23 64 73 100 145 105zM211 914c15 20 50 60 73 57c21 -11 45 -44 60 -68c11 -11 24 -26 36 -37c13 -11 22 -81 11 -89
c-5 -4 -26 -19 -32 -18c-5 0 -7 1 -8 9c-12 18 -41 56 -55 69c-24 21 -54 47 -79 59c-12 6 -16 11 -6 18z" />
    <glyph glyph-name="Uacute" unicode="&#xda;" horiz-adv-x="603" 
d="M206 710c27 10 3 -48 2 -50c-29 -88 -98 -429 2 -521c38 -34 93 -49 138 -50c81 -2 59 27 62 119c5 51 6 107 7 159c-4 79 -10 190 0 263c16 51 69 75 120 88c22 13 12 -38 11 -42c-15 -95 -17 -208 -24 -306c-4 -95 -2 -196 -4 -293c4 -18 1 -32 -6 -46
c-6 -15 -36 -27 -52 -30c-4 2 -8 7 -11 15c-53 -31 -133 -39 -200 -14c-34 13 -79 43 -107 69c-94 90 -105 268 -102 368c2 56 6 114 19 166c23 64 73 100 145 105zM392 914c10 -7 6 -12 -6 -18c-25 -12 -55 -38 -79 -59c-14 -13 -43 -51 -55 -69c-1 -8 -3 -9 -8 -9
c-6 -1 -27 14 -32 18c-11 8 -2 78 11 89c12 11 25 26 36 37c15 24 39 57 60 68c23 3 58 -37 73 -57z" />
    <glyph glyph-name="Ucircumflex" unicode="&#xdb;" horiz-adv-x="603" 
d="M206 710c27 10 3 -48 2 -50c-29 -88 -98 -429 2 -521c38 -34 93 -49 138 -50c81 -2 59 27 62 119c5 51 6 107 7 159c-4 79 -10 190 0 263c16 51 69 75 120 88c22 13 12 -38 11 -42c-15 -95 -17 -208 -24 -306c-4 -95 -2 -196 -4 -293c4 -18 1 -32 -6 -46
c-6 -15 -36 -27 -52 -30c-4 2 -8 7 -11 15c-53 -31 -133 -39 -200 -14c-34 13 -79 43 -107 69c-94 90 -105 268 -102 368c2 56 6 114 19 166c23 64 73 100 145 105zM215 712c-18 10 -66 30 -49 58c2 1 89 77 100 86c6 6 14 11 23 15c15 8 36 8 51 -4c40 -38 67 -70 101 -109
c9 -4 12 -10 13 -17c0 -7 -15 -24 -20 -31c-30 -23 -85 40 -123 57c-31 -11 -62 -49 -96 -55z" />
    <glyph glyph-name="Udieresis" unicode="&#xdc;" horiz-adv-x="603" 
d="M206 710c27 10 3 -48 2 -50c-29 -88 -98 -429 2 -521c38 -34 93 -49 138 -50c81 -2 59 27 62 119c5 51 6 107 7 159c-4 79 -10 190 0 263c16 51 69 75 120 88c22 13 12 -38 11 -42c-15 -95 -17 -208 -24 -306c-4 -95 -2 -196 -4 -293c4 -18 1 -32 -6 -46
c-6 -15 -36 -27 -52 -30c-4 2 -8 7 -11 15c-53 -31 -133 -39 -200 -14c-34 13 -79 43 -107 69c-94 90 -105 268 -102 368c2 56 6 114 19 166c23 64 73 100 145 105zM226 779c-10 0 -108 20 -111 39c4 2 16 45 16 50c-2 12 -3 27 7 34c26 3 96 -25 124 -36c5 -2 21 -8 10 -9
c-13 -11 -28 -78 -46 -78zM431 779c-10 0 -108 20 -111 39c4 2 16 45 16 50c-2 12 -3 27 7 34c26 3 96 -25 124 -36c5 -2 21 -8 10 -9c-13 -11 -28 -78 -46 -78z" />
    <glyph glyph-name="Yacute" unicode="&#xdd;" horiz-adv-x="592" 
d="M92 708c11 17 21 -12 23 -21c21 -60 66 -125 103 -179c26 -36 67 -81 103 -119c16 91 41 208 77 281c32 44 92 55 150 27c22 -7 4 -21 -3 -29c-51 -67 -95 -226 -119 -313c-24 -95 -44 -216 -55 -316c2 -15 0 -25 -7 -36s-37 -15 -51 -15c-39 15 -42 159 -36 192
c9 39 18 78 26 118c-33 17 -70 43 -82 57c-21 28 -46 58 -69 86c-40 42 -90 100 -114 150c-12 47 24 91 54 117zM386 914c10 -7 6 -12 -6 -18c-25 -12 -55 -38 -79 -59c-14 -13 -43 -51 -55 -69c-1 -8 -3 -9 -8 -9c-6 -1 -27 14 -32 18c-11 8 -2 78 11 89c12 11 25 26 36 37
c15 24 39 57 60 68c23 3 58 -37 73 -57z" />
    <glyph glyph-name="AE" unicode="&#xc6;" horiz-adv-x="1030" 
d="M474 631v0c62 71 114 69 204 66c19 -1 39 -2 59 -4c41 -2 97 3 140 4c8 5 15 3 24 -1c8 -6 19 -34 22 -44c-3 -20 -74 -55 -98 -55c-23 3 -51 3 -74 2c-32 -4 -90 -12 -120 -7c-1 1 -3 2 -5 3c1 -39 2 -77 3 -115c30 -4 60 -6 88 -9c43 -3 105 2 149 4c10 4 18 3 27 -2
c11 -5 24 -32 28 -43c-4 -20 -86 -56 -110 -56c-26 3 -55 3 -81 3c-28 -3 -66 -6 -99 -5v-21c2 -84 8 -173 12 -259c27 -1 53 0 79 -1c37 2 87 12 127 16c9 5 17 3 26 -1c10 -5 23 -32 26 -43c-3 -15 -74 -58 -93 -60c-20 2 -44 -1 -65 -4c-83 -21 -154 -21 -168 30
c-10 35 -19 78 -33 142v43c-23 -19 -54 -35 -78 -35c-30 1 -63 1 -94 0c-24 -2 -55 -4 -85 -4c-22 -29 -44 -58 -68 -88c-17 -19 -33 -39 -51 -58c-13 -19 -28 -33 -49 -43c-18 -9 -48 -4 -63 10c-4 12 82 138 92 152c8 15 20 35 31 47c2 2 4 5 6 7c-21 24 -36 61 -45 88
c-12 18 21 11 28 9c26 -6 54 -11 83 -15c13 17 25 34 37 51c6 9 12 19 18 28c56 87 112 187 170 268zM356 274v0c45 -3 114 2 158 9c9 6 15 5 24 1c1 0 2 -1 2 -1c0 13 -1 26 -1 39c-5 45 -12 102 -16 155l-3 6c-4 7 -2 10 1 12v11c-44 -67 -90 -132 -139 -197
c-1 -1 -2 -3 -3 -4c-7 -10 -15 -21 -23 -31z" />
    <glyph glyph-name="scaron" unicode="&#x161;" horiz-adv-x="459" 
d="M374 454c1 -16 -21 4 -28 7c-41 25 -99 31 -139 23c-67 -14 -22 -53 19 -86c61 -51 121 -104 164 -172c31 -49 55 -103 43 -156c-29 -120 -227 -113 -335 -32c-21 14 -48 40 -60 61c-15 26 -19 47 -18 75c2 32 34 62 62 73c3 -1 -4 -63 -1 -76c3 -17 9 -29 21 -44
c39 -46 108 -56 160 -60c44 -4 100 7 86 64c-18 70 -121 155 -174 196c-29 23 -53 44 -75 75c-53 77 -25 150 54 173c65 19 166 -16 208 -78c8 -14 16 -29 13 -43zM143 763c34 -6 65 -44 96 -55c38 17 93 80 123 57c5 -7 20 -24 20 -31c-1 -7 -4 -13 -13 -17
c-34 -39 -61 -71 -101 -109c-15 -12 -36 -12 -51 -4c-9 4 -17 9 -23 15c-11 9 -98 85 -100 86c-17 28 31 48 49 58z" />
    <glyph glyph-name="Scaron" unicode="&#x160;" horiz-adv-x="574" 
d="M468 567c1 -20 -27 5 -35 9c-52 31 -124 39 -174 29c-84 -17 -28 -66 23 -107c77 -64 152 -131 206 -216c38 -61 68 -128 53 -194c-36 -151 -283 -142 -419 -41c-26 18 -59 50 -75 77c-18 32 -23 59 -22 93c3 41 42 78 78 92c3 -2 -5 -79 -2 -95c4 -22 11 -37 26 -55
c49 -58 135 -70 200 -75c55 -5 125 9 108 80c-22 87 -151 193 -217 245c-37 29 -67 55 -94 94c-66 96 -32 187 67 216c82 23 208 -20 260 -98c10 -17 20 -36 17 -54zM200 914c34 -6 65 -44 96 -55c38 17 93 80 123 57c5 -7 20 -24 20 -31c-1 -7 -4 -13 -13 -17
c-34 -39 -61 -71 -101 -109c-15 -12 -36 -12 -51 -4c-9 4 -17 9 -23 15c-11 9 -98 85 -100 86c-17 28 31 48 49 58z" />
    <glyph glyph-name="OE" unicode="&#x152;" horiz-adv-x="1072" 
d="M322 643c22 -16 -22 -13 -43 -19c-8 -3 -14 -6 -21 -11c-65 -44 -93 -162 -99 -241c-3 -71 2 -143 36 -214c26 -52 62 -75 113 -70c183 16 259 260 200 430c-9 23 -18 43 -32 63c-15 21 -58 61 -79 71c-48 32 -62 39 -114 61c7 22 108 12 132 6c38 -13 67 -29 97 -55
l-18 38c-11 17 -1 17 13 13c46 -13 128 -12 176 -14c72 0 159 9 232 13c44 9 78 -6 112 -48c-2 -22 -149 -67 -180 -68c-60 0 -88 2 -146 -6c-7 -52 -13 -106 -18 -159c16 -1 33 -3 49 -5c43 -2 106 4 150 6c9 5 18 3 28 -2c12 -6 32 -37 38 -49c1 -21 -72 -63 -98 -63
c-107 6 -102 -6 -177 -4c-3 -56 -2 -124 3 -170c5 -10 5 -16 0 -24c-2 -2 -10 -6 -19 -9c39 -2 77 -3 108 -4c59 -1 147 7 204 17c7 6 14 6 24 1c9 -4 30 -35 37 -44c12 -35 -63 -74 -95 -76c-41 1 -84 -2 -125 -4c-55 -6 -151 -15 -207 -5c-33 12 -58 44 -76 77
c-15 -16 -31 -30 -49 -42c-72 -49 -186 -81 -283 -22c-171 103 -184 381 -137 523c16 47 37 80 76 109c31 25 63 40 107 38c31 -2 59 -11 81 -38z" />
    <glyph glyph-name="oe" unicode="&#x153;" horiz-adv-x="860" 
d="M260 511c17 -13 -18 -10 -35 -15c-7 -3 -11 -5 -17 -9c-53 -36 -75 -131 -80 -195c-3 -58 1 -116 29 -173c21 -42 50 -61 91 -57c148 13 210 210 162 348c-7 19 -14 35 -26 51c-12 17 -47 49 -64 57c-39 26 -50 32 -92 50c6 18 87 9 107 5c31 -11 54 -24 78 -45l-14 31
c-9 14 -1 14 10 10c38 -10 104 -9 143 -11c58 0 128 7 187 11c36 7 64 -5 91 -39c-2 -18 -121 -55 -146 -55c-48 0 -71 1 -118 -5c-5 -42 -10 -86 -14 -129c13 -1 26 -2 39 -4c35 -1 86 3 122 5c7 4 14 2 22 -2c10 -4 26 -30 31 -39c1 -17 -58 -51 -79 -51
c-87 5 -83 -5 -143 -3c-3 -46 -2 -101 2 -138c4 -8 4 -13 0 -19c-2 -2 -8 -5 -15 -8c31 -1 62 -2 87 -3c48 -1 119 6 165 14c6 5 11 5 20 1c7 -4 24 -29 29 -36c10 -28 -50 -60 -76 -61c-34 0 -68 -2 -102 -4c-44 -5 -122 -12 -167 -4c-27 10 -47 36 -62 63
c-12 -13 -25 -25 -39 -34c-58 -40 -151 -66 -229 -18c-138 83 -149 308 -111 423c13 38 30 65 62 88c25 20 50 32 86 31c25 -2 48 -9 66 -31z" />
    <glyph glyph-name="Zcaron" unicode="&#x17d;" horiz-adv-x="619" 
d="M65 694c-12 20 10 15 22 12c59 -13 143 -11 202 -11c54 2 131 15 184 26c8 7 17 6 28 2c12 -4 35 -33 42 -44c2 -9 -4 -20 -15 -30c2 -1 3 -2 5 -3c19 -10 9 -14 -2 -23c-54 -47 -137 -183 -179 -248c-50 -81 -100 -180 -143 -269c36 0 73 0 108 -1c56 2 133 16 187 27
c10 7 20 6 33 3c14 -4 41 -32 49 -43c4 -26 -87 -81 -119 -85c-35 -1 -72 -5 -107 -8c-55 -10 -134 -21 -191 -16c-52 14 -103 71 -136 114c-25 21 36 15 40 15c11 -1 22 -2 33 -2c7 54 29 121 40 141c33 52 63 107 93 161c24 49 59 119 94 176v0c-48 -9 -124 -21 -174 -14
c-44 17 -76 79 -94 120zM223 922c34 -6 65 -44 96 -55c38 17 93 80 123 57c5 -7 20 -24 20 -31c-1 -7 -4 -13 -13 -17c-34 -39 -61 -71 -101 -109c-15 -12 -36 -12 -51 -4c-9 4 -17 9 -23 15c-11 9 -98 85 -100 86c-17 28 31 48 49 58z" />
    <glyph glyph-name="zcaron" unicode="&#x17e;" horiz-adv-x="495" 
d="M52 555c-10 16 8 12 18 10c47 -11 114 -9 161 -9c43 2 105 12 147 21c7 5 14 5 23 1c9 -3 28 -26 33 -35c2 -7 -3 -16 -12 -24c2 -1 3 -1 4 -2c16 -8 8 -11 -1 -19c-43 -37 -110 -146 -143 -198c-40 -65 -80 -144 -115 -215c29 0 59 0 87 -1c44 2 106 13 149 22
c8 5 16 4 27 2c11 -3 32 -26 39 -34c3 -21 -70 -65 -95 -68c-28 -1 -58 -4 -86 -7c-44 -8 -107 -17 -153 -13c-41 12 -82 57 -109 92c-20 16 29 12 32 12c9 -1 18 -2 27 -2c5 43 23 97 32 113c26 41 50 85 74 129c19 39 47 95 75 140v0c-38 -7 -99 -16 -139 -11
c-35 14 -61 63 -75 96zM161 756c34 -6 65 -44 96 -55c38 17 93 80 123 57c5 -7 20 -24 20 -31c-1 -7 -4 -13 -13 -17c-34 -39 -61 -71 -101 -109c-15 -12 -36 -12 -51 -4c-9 4 -17 9 -23 15c-11 9 -98 85 -100 86c-17 28 31 48 49 58z" />
    <glyph glyph-name="plusminus" unicode="&#xb1;" horiz-adv-x="653" 
d="M80 497c-21 23 28 12 33 11c49 -11 101 -17 151 -23c-5 39 -7 79 -1 111c18 41 85 57 130 62c24 10 14 -28 12 -35c-12 -45 -15 -95 -17 -144c39 1 79 6 111 9c10 7 19 5 32 1c12 -5 37 -35 45 -48c3 -27 -85 -76 -114 -77c-23 2 -48 2 -71 2c4 -42 10 -88 13 -126
c7 -14 5 -25 0 -37c-6 -12 -38 -24 -52 -27c-22 8 -73 124 -75 152c1 10 1 22 1 33c-30 0 -60 2 -84 7c-45 19 -87 83 -114 129zM112 169c-17 19 12 13 27 11c57 -13 124 -19 183 -24c40 -3 112 1 154 4c9 5 18 3 29 -3c12 -5 35 -36 40 -47c9 -13 -73 -64 -97 -60
c-27 2 -59 2 -86 2c-41 -4 -101 -9 -144 0c-44 18 -85 84 -106 117z" />
    <glyph glyph-name="Euro" unicode="&#x20ac;" horiz-adv-x="695" 
d="M494 649v0c-11 -12 -15 -3 -36 -2c-23 -2 -43 -3 -66 -12c-42 -20 -70 -44 -99 -80c-25 -33 -42 -63 -56 -100c12 -1 23 -2 34 -3c51 -3 132 -1 184 2c12 4 22 3 34 0c14 -4 31 -22 37 -35c4 -13 -118 -48 -140 -47c-33 2 -70 3 -103 3c-20 -1 -44 -1 -68 -1
c-3 -19 -6 -40 -5 -60c28 -1 56 -2 80 -3c64 -1 132 5 199 4c12 4 21 2 31 -3c12 -5 20 -28 21 -37c-7 -16 -95 -40 -122 -40c-34 2 -73 1 -107 0c-27 -2 -58 -5 -91 -6c24 -82 78 -132 160 -157c15 -5 29 -8 44 -10c24 0 64 9 88 7c37 -4 108 -41 13 -60
c-56 -11 -141 -12 -167 -7c-38 7 -85 26 -115 52c-55 47 -86 107 -101 176c-8 1 -15 1 -23 2c-47 14 -67 58 -74 90c-8 15 18 9 28 6c18 -4 38 -7 59 -9c-1 20 0 39 2 58c-9 1 -18 3 -27 4c-43 15 -70 61 -85 90c-15 16 31 8 37 7c30 -6 61 -10 93 -14c15 54 36 96 70 143
c30 41 80 89 132 101c36 9 113 4 138 -33c6 -8 9 -18 1 -26z" />
    <glyph glyph-name="exclamdown" unicode="&#xa1;" horiz-adv-x="275" 
d="M190 -177c-43 10 -102 26 -119 67c-10 51 -6 144 -4 201c-1 38 -3 81 -8 118c-1 31 31 137 60 147c13 -1 44 -8 50 -18c5 -10 7 -18 2 -31c-1 -65 -2 -148 3 -211c9 -78 15 -163 28 -238c1 -7 9 -47 -12 -35v0zM210 463c-28 -12 -96 -38 -122 -35c-10 6 -10 21 -7 33
c0 6 -11 47 -16 50c3 18 100 37 110 37c17 1 32 -65 45 -76c11 -1 -6 -7 -10 -9z" />
    <glyph glyph-name="brokenbar" unicode="&#xa6;" horiz-adv-x="249" 
d="M161 743c13 4 11 -5 10 -10c-13 -36 -12 -123 -13 -164c-1 -57 1 -116 0 -173c3 -8 2 -14 -1 -20c-6 -6 -26 -7 -36 -6c-25 9 -38 77 -37 94c1 32 1 67 0 99c-1 42 -9 116 -2 154c11 26 49 22 79 26zM161 -38c13 -4 11 5 10 10l-13 164c-1 57 1 116 0 173c3 8 2 14 -1 20
c-6 6 -26 7 -36 6c-25 -9 -38 -77 -37 -94c1 -32 1 -67 0 -99c-1 -42 -9 -116 -2 -154c11 -26 49 -22 79 -26z" />
    <glyph glyph-name="bar" unicode="|" horiz-adv-x="286" 
d="M179 733c14 7 12 -12 9 -24c-12 -73 -11 -253 -13 -341c-2 -119 2 -240 1 -359c3 -18 2 -29 -3 -43c-6 -13 -28 -15 -39 -13c-28 19 -43 163 -42 197c2 67 2 139 2 207c-3 87 -11 240 -3 319c12 55 53 48 88 57z" />
    <glyph glyph-name="questiondown" unicode="&#xbf;" horiz-adv-x="532" 
d="M227 452v0c-4 1 -21 7 -10 8c13 11 28 79 46 78c10 0 108 -20 112 -38c-5 -3 -16 -45 -17 -50c3 -13 4 -29 -7 -35c-26 -3 -96 25 -124 37zM412 -9c20 43 79 -35 73 -57c-12 -38 -38 -74 -70 -97c-67 -48 -174 -47 -258 6c-101 64 -121 168 -85 254
c39 87 118 121 182 184c4 6 38 56 38 56c13 8 44 -9 61 -4c23 -7 -3 -87 -8 -98c-20 -38 -72 -102 -108 -128c-26 -18 -50 -38 -64 -66c-15 -35 -18 -75 29 -101c78 -43 165 4 210 51z" />
    <glyph glyph-name="multiply" unicode="&#xd7;" horiz-adv-x="528" 
d="M63 169c-28 0 12 27 15 31c40 26 79 61 116 92c-31 24 -57 52 -75 79c-15 42 19 101 44 138c10 24 29 -10 33 -16c20 -42 51 -80 83 -117c24 28 48 61 68 87c2 12 9 17 19 22c13 6 48 2 62 -2c21 -17 -6 -115 -25 -136c-17 -15 -33 -33 -47 -50c29 -27 63 -56 92 -82
c13 -5 20 -13 23 -26c4 -12 -9 -45 -17 -57c-20 -10 -129 37 -149 56c-7 8 -13 17 -22 24c-19 -21 -40 -41 -58 -56c-43 -18 -114 -2 -162 13z" />
    <glyph glyph-name="yen" unicode="&#xa5;" horiz-adv-x="695" 
d="M100 765v0c4 23 21 1 28 -6c35 -48 84 -98 124 -143l71 -63c3 7 8 13 10 16c26 23 51 52 75 77c26 35 73 95 110 116c36 10 87 -26 113 -49c14 -8 11 -14 -3 -18c-34 -11 -104 -77 -135 -105c-31 -29 -66 -72 -97 -111c-2 -11 -4 -26 -4 -32c-2 -6 -6 -9 -12 -12
c0 -9 -1 -16 -1 -26l103 8c10 4 19 4 28 -1c8 -4 18 -21 22 -28c13 -19 18 -10 11 -20c-8 -12 -13 -14 -21 -20c-16 -14 -33 -21 -52 -28c-13 -7 -32 -15 -45 -14c-18 1 -37 3 -55 3c0 -11 -2 -22 -4 -32c41 1 84 3 124 3c9 4 16 2 24 -3c9 -8 10 -39 9 -49
c-10 -33 -67 -54 -98 -54c-21 2 -45 3 -68 3c-3 -53 -4 -110 -5 -157c4 -14 2 -26 -3 -40c-7 -14 -35 -33 -47 -38c-27 6 -56 137 -53 170c3 19 5 38 7 57c-42 -3 -89 -5 -112 0c-36 19 -36 80 -48 113c-7 13 -2 18 11 12c28 -11 102 -14 153 -16v27c-45 -2 -97 -2 -126 6
c-37 19 -40 77 -44 115c-2 14 -1 17 12 10c29 -12 104 -18 161 -22c1 20 1 28 10 44c-17 10 -59 57 -78 73c-33 25 -92 73 -115 106c-15 33 9 94 20 128z" />
    <glyph glyph-name="guillemotleft" unicode="&#xab;" horiz-adv-x="601" 
d="M376 522v0c23 0 -23 -34 -29 -38c-68 -52 -132 -125 -190 -192c-7 -8 -8 -12 -3 -21c20 -42 72 -79 99 -109c15 -16 29 -33 44 -48c11 -8 17 -16 25 -29c7 -11 14 -48 14 -62c-14 -12 -117 70 -129 82c-6 2 -13 9 -18 15c-18 20 -36 39 -54 60c-30 35 -81 97 -42 149
c44 59 96 127 149 174c40 30 89 33 134 19zM528 522v0c22 0 -24 -34 -30 -38c-67 -52 -131 -125 -190 -192c-7 -8 -7 -12 -3 -21c20 -42 73 -79 100 -109c14 -16 28 -33 43 -48c12 -8 18 -16 25 -29c7 -11 14 -48 15 -62c-15 -12 -117 70 -129 82c-7 2 -14 9 -19 15
c-18 20 -36 39 -54 60c-29 35 -80 97 -41 149c44 59 96 127 148 174c41 30 89 33 135 19z" />
    <glyph glyph-name="guillemotright" unicode="&#xbb;" horiz-adv-x="555" 
d="M207 522c45 14 94 11 134 -19c53 -47 105 -115 149 -174c39 -52 -12 -114 -42 -149c-18 -21 -36 -40 -54 -60c-5 -6 -12 -13 -18 -15c-12 -12 -115 -94 -129 -82c0 14 7 51 14 62c8 13 14 21 25 29c15 15 29 32 44 48c27 30 79 67 99 109c5 9 4 13 -3 21
c-58 67 -122 140 -190 192c-6 4 -52 38 -29 38zM55 522c46 14 94 11 135 -19c52 -47 104 -115 148 -174c39 -52 -12 -114 -41 -149c-18 -21 -36 -40 -54 -60c-5 -6 -12 -13 -19 -15c-12 -12 -114 -94 -129 -82c1 14 8 51 15 62c7 13 13 21 25 29c15 15 29 32 43 48
c27 30 80 67 100 109c4 9 4 13 -3 21c-59 67 -123 140 -190 192c-6 4 -52 38 -30 38z" />
    <glyph glyph-name="Oslash" unicode="&#xd8;" horiz-adv-x="674" 
d="M536 649c82 -83 121 -222 109 -319c-15 -118 -66 -231 -161 -296c-72 -49 -186 -81 -283 -22c-1 1 -2 1 -3 2c-3 -8 -8 -15 -14 -22c-9 -11 -37 -14 -53 -13c-21 14 -16 58 -5 100c-99 127 -101 338 -62 456c16 47 37 80 76 109c31 25 63 40 107 38c31 -2 59 -11 81 -38
c22 -16 -22 -13 -43 -19c-8 -3 -14 -6 -21 -11c-65 -44 -93 -162 -99 -241c-2 -53 0 -107 15 -160c69 146 143 303 238 430c-5 5 -11 8 -15 10c-48 32 -62 39 -114 61c7 22 108 12 132 6c18 -6 35 -13 50 -21c23 21 47 32 90 19c30 -2 -12 -39 -14 -42
c-6 -7 -12 -13 -18 -21c2 -2 5 -4 7 -6zM314 89c183 16 259 260 200 430c-9 23 -18 43 -32 63c-1 1 -2 2 -3 4c-49 -77 -92 -168 -133 -239c-37 -68 -79 -153 -113 -233c22 -20 48 -28 81 -25z" />
    <glyph glyph-name="sterling" unicode="&#xa3;" horiz-adv-x="558" 
d="M445 561v0c-11 -5 -10 8 -11 14c-1 8 -6 16 -11 22c-32 34 -86 20 -117 -7c-49 -43 -58 -134 -61 -196c13 -1 26 -2 39 -4c39 -2 98 2 138 6c7 3 8 6 23 0c10 -3 23 -28 27 -37c2 -7 -65 -56 -96 -54c-26 2 -54 2 -80 2c-16 -2 -35 -3 -55 -3c-2 -43 -6 -85 -14 -130
c-5 -25 -10 -47 -19 -71c-2 -9 -4 -17 -7 -24c25 -2 48 -3 63 -4c60 -2 130 3 191 6c8 4 15 3 24 -1c8 -5 16 -28 19 -38c-4 -28 -84 -51 -106 -51c-35 2 -74 2 -110 1c-45 -3 -128 -9 -170 0c-30 15 -42 62 -35 97c4 21 -9 8 41 -1c12 42 26 89 27 103c1 19 2 39 5 57
c3 21 5 41 7 62c-30 16 -49 63 -60 94c-10 16 19 10 25 8c13 -3 26 -6 41 -8c5 89 9 186 77 253c42 41 119 73 177 48c83 -34 81 -136 28 -144z" />
    <glyph glyph-name="guilsinglright" unicode="&#x203a;" horiz-adv-x="424" 
d="M55 534c46 14 94 11 135 -19c52 -47 104 -115 148 -174c54 -72 -56 -165 -95 -209c-5 -6 -12 -13 -19 -15c-12 -12 -114 -94 -129 -82c1 14 8 51 15 62c7 13 13 21 25 29c15 15 29 32 43 48c27 30 80 67 100 109c4 9 4 13 -3 21c-59 67 -123 140 -190 192
c-6 4 -52 38 -30 38z" />
    <glyph glyph-name="cent" unicode="&#xa2;" horiz-adv-x="502" 
d="M273 645c14 6 33 -29 30 -41c-3 -15 -5 -32 -7 -49c22 -2 44 -8 63 -16c25 -12 52 -28 72 -49c24 -26 -12 -52 -31 -53c-31 10 -75 27 -111 32c-3 -40 -4 -81 -5 -119c-2 -93 0 -186 1 -279c22 4 42 10 59 17c12 8 63 50 63 51c18 7 44 -5 64 -1c19 -7 -32 -76 -38 -82
c-26 -25 -52 -43 -87 -57c-20 -7 -39 -12 -60 -15c0 -6 -2 -12 -4 -19c-6 -12 -28 -14 -39 -12c-7 5 -13 17 -18 33c-18 4 -36 10 -54 19c-74 37 -116 110 -132 181c-10 48 -10 101 -2 146c15 84 62 180 144 212l22 6c1 19 2 37 4 54c12 53 31 32 66 41zM172 98
c10 -10 22 -17 34 -21c-3 28 -5 53 -4 65c2 64 2 133 2 198l-3 103c-12 -8 -22 -18 -29 -29c-31 -42 -49 -110 -53 -164c-3 -49 11 -111 53 -152z" />
    <glyph glyph-name="guilsinglleft" unicode="&#x2039;" horiz-adv-x="424" 
d="M347 534c22 0 -24 -34 -30 -38c-67 -52 -131 -125 -190 -192c-7 -8 -7 -12 -3 -21c20 -42 73 -79 100 -109c14 -16 28 -33 43 -48c12 -8 18 -16 25 -29c7 -11 14 -48 15 -62c-15 -12 -117 70 -129 82c-7 2 -14 9 -19 15c-39 44 -149 137 -95 209c44 59 96 127 148 174
c41 30 89 33 135 19z" />
    <glyph glyph-name="copyright" unicode="&#xa9;" horiz-adv-x="668" 
d="M180 532v0c87 51 118 37 203 33c11 -2 29 3 39 -3c36 -5 69 -27 93 -54c52 -61 80 -120 89 -200c1 -17 1 -32 -1 -49c-16 -128 -114 -235 -250 -236c-34 0 -69 3 -101 11c-121 32 -174 130 -179 250c-2 69 3 125 41 185c16 24 41 48 66 63zM440 350v0
c-7 -11 -18 10 -24 17c-25 26 -88 41 -118 15c-41 -38 -66 -130 -9 -163c40 -24 83 -21 123 -4c20 6 24 6 45 15c11 -2 -14 -46 -19 -54c-32 -36 -93 -39 -135 -31c-17 2 -35 11 -49 19c-66 43 -72 129 -48 196c18 53 54 96 112 106c112 18 151 -83 122 -116zM438 505v0
c-34 7 -90 23 -143 6c-27 -10 -50 -19 -74 -37c-66 -44 -79 -111 -77 -188c1 -35 4 -63 17 -97c34 -80 112 -104 192 -104c29 1 52 5 79 19c72 36 113 122 108 201c-9 70 -39 157 -102 200z" />
    <glyph glyph-name="registered" unicode="&#xae;" horiz-adv-x="677" 
d="M187 509v0c89 53 121 38 208 34c11 -1 29 3 39 -3c37 -5 71 -27 95 -55c53 -62 82 -122 91 -204c1 -17 1 -32 -1 -50c-17 -131 -117 -240 -255 -241c-35 0 -70 3 -104 11c-123 33 -177 133 -182 255c-2 71 3 128 42 189c16 25 41 49 67 64zM302 364v0c13 7 8 -13 7 -18
c-6 -23 -10 -50 -13 -76c18 10 48 24 61 28c84 21 3 72 -1 72c-40 6 -64 17 -92 42c-20 10 28 14 28 14c28 2 81 4 104 -9c95 -51 90 -133 3 -174c8 -11 17 -22 25 -33c11 -14 31 -32 44 -46c5 -2 6 -5 6 -10c-3 -38 -58 -35 -72 -16c-5 8 -13 17 -20 24
c-12 9 -32 24 -39 36c-1 7 1 17 4 28c-11 -3 -23 -5 -35 -6c-8 -4 -14 -4 -21 -2c0 -22 1 -48 2 -66c3 -6 2 -11 -1 -17c-4 -6 -23 -14 -30 -16c-13 2 -37 51 -36 67c2 16 2 34 2 50c-2 25 -4 61 2 84c11 22 50 36 72 44zM450 482v0c-34 7 -91 23 -145 6
c-28 -10 -51 -20 -76 -37c-68 -46 -81 -114 -79 -192c1 -36 5 -65 18 -99c34 -82 114 -107 196 -107c30 1 53 6 80 20c74 37 116 124 110 204c-8 73 -40 161 -104 205z" />
    <glyph glyph-name="currency" unicode="&#xa4;" horiz-adv-x="608" 
d="M198 609v0c60 36 81 25 139 22c8 0 20 3 26 -1c25 -3 48 -18 64 -37c3 -3 6 -7 9 -11l39 13c11 5 31 22 39 31c-1 4 1 4 5 3c5 -2 20 -11 26 -15c12 -10 10 -45 -2 -54c-10 -4 -21 -12 -30 -18c-12 -10 -22 -20 -39 -25c21 -56 19 -110 -10 -164c7 -12 19 -27 26 -35
s29 -23 39 -29c12 4 -8 -29 -10 -31c-8 -11 -36 -21 -47 -13c-5 7 -14 14 -21 20c-12 7 -29 18 -36 31c-28 -21 -61 -33 -98 -33c-73 -1 -105 21 -107 22c-14 -4 -29 -10 -41 -15c-10 -5 -31 -23 -41 -30c-2 -5 -5 -5 -9 -4l-15 11c-16 5 -7 56 2 61c30 14 23 19 46 33
c-17 28 -25 62 -27 99c-1 42 2 76 20 112l-13 11c-12 8 -38 24 -43 37c-1 18 25 49 32 68c2 8 7 10 10 2c3 -15 31 -43 41 -56l15 -12c3 3 7 5 11 7zM361 563v0c-18 4 -49 12 -77 3c-62 -20 -85 -55 -83 -122c2 -71 39 -111 114 -109c65 0 106 62 101 119
c-4 39 -21 86 -55 109z" />
  </font>
</defs>
</svg>
